<?xml version="1.0" encoding="UTF-8"?>
<svg version="1.1" xmlns="http://www.w3.org/2000/svg" width="300" height="300">
<path d="M0 0 C99 0 198 0 300 0 C300 99 300 198 300 300 C201 300 102 300 0 300 C0 201 0 102 0 0 Z " fill="#010100" transform="translate(0,0)"/>
<path d="M0 0 C7.074375 -0.12375 14.14875 -0.2475 21.4375 -0.375 C23.65267334 -0.42962402 25.86784668 -0.48424805 28.15014648 -0.54052734 C29.93210682 -0.5580727 31.71409145 -0.57335688 33.49609375 -0.5859375 C34.40008911 -0.6166333 35.30408447 -0.6473291 36.23547363 -0.67895508 C43.26161327 -0.68466507 47.68609924 1.429422 53 6 C57.40439454 11.2637886 57.67538431 16.05097069 57.44921875 22.8359375 C56.6930013 28.16233869 54.57973711 31.94485058 50.3671875 35.30078125 C48.94168078 36.24767581 47.47333653 37.12939205 46 38 C45.505 38.99 45.505 38.99 45 40 C58.2 40 71.4 40 85 40 C81.04 34.72 77.08 29.44 73 24 C71.24385931 20.48771862 71.45592687 16.83296463 72 13 C74.15724587 7.88884901 77.3521964 4.05776553 82 1 C84.78061975 0.07312675 86.42051859 -0.12193396 89.2878418 -0.11352539 C90.14850754 -0.11344986 91.00917328 -0.11337433 91.8959198 -0.11329651 C92.82100845 -0.10813522 93.74609711 -0.10297394 94.69921875 -0.09765625 C95.64940384 -0.0962413 96.59958893 -0.09482635 97.5785675 -0.09336853 C100.61491029 -0.08776875 103.65117948 -0.07521632 106.6875 -0.0625 C108.74544164 -0.05748497 110.80338444 -0.05292207 112.86132812 -0.04882812 C117.90760329 -0.03865008 122.9537192 -0.01907456 128 0 C128 6.6 128 13.2 128 20 C117.77 20 107.54 20 97 20 C102.36592141 26.77041168 102.36592141 26.77041168 108 33.3125 C111.41851606 38.23609652 110.99389836 44.32358048 110 50 C107.53266006 55.25330988 104.09812492 58.32415286 99 61 C96.27998352 61.48188782 96.27998352 61.48188782 93.30200195 61.6262207 C92.17925369 61.68409256 91.05650543 61.74196442 89.8997345 61.80158997 C84.73499983 61.97677042 79.57092833 62.12371758 74.40405273 62.21508789 C71.69517101 62.26811934 68.99592706 62.37167711 66.29077148 62.52270508 C42.63350124 63.7459817 42.63350124 63.7459817 34.16162109 56.93505859 C30.17510126 53.18255407 26.66400755 49.13629237 23.39836121 44.74504089 C22.10030608 42.87585313 22.10030608 42.87585313 20 42 C20 48.27 20 54.54 20 61 C13.4 61 6.8 61 0 61 C0 40.87 0 20.74 0 0 Z " fill="#030302" transform="translate(159,153)"/>
<path d="M0 0 C1.23026413 -0.00021904 1.23026413 -0.00021904 2.48538208 -0.0004425 C5.17989808 0.00025077 7.87434382 0.00801567 10.56884766 0.01586914 C12.44357261 0.0177354 14.31829806 0.01915832 16.19302368 0.02015686 C21.11506509 0.02396566 26.03707675 0.03378193 30.95910645 0.04486084 C35.98656817 0.0551102 41.01403473 0.05966202 46.04150391 0.06469727 C55.89698779 0.07540571 65.75244184 0.09298922 75.60791016 0.11352539 C75.60791016 6.71352539 75.60791016 13.31352539 75.60791016 20.11352539 C68.01791016 20.11352539 60.42791016 20.11352539 52.60791016 20.11352539 C52.60791016 33.64352539 52.60791016 47.17352539 52.60791016 61.11352539 C45.67791016 61.11352539 38.74791016 61.11352539 31.60791016 61.11352539 C31.60791016 47.58352539 31.60791016 34.05352539 31.60791016 20.11352539 C21.70791016 20.11352539 11.80791016 20.11352539 1.60791016 20.11352539 C6.9934171 26.89759701 6.9934171 26.89759701 12.60791016 33.48852539 C15.87231318 38.18526852 15.48977773 43.67052306 14.60791016 49.11352539 C12.58318834 54.84404539 9.59264256 57.58170178 4.10131836 60.25683594 C-0.80292491 61.94184423 -5.85645469 61.59705105 -10.98583984 61.50415039 C-12.17310669 61.4984906 -13.36037354 61.49283081 -14.58361816 61.48699951 C-18.35352916 61.46471549 -22.12246898 61.41453124 -25.89208984 61.36352539 C-28.45718023 61.34345021 -31.0222856 61.32520123 -33.58740234 61.30883789 C-39.85600232 61.26487639 -46.12388175 61.19590176 -52.39208984 61.11352539 C-52.39208984 54.18352539 -52.39208984 47.25352539 -52.39208984 40.11352539 C-38.53208984 40.11352539 -24.67208984 40.11352539 -10.39208984 40.11352539 C-13.36208984 36.48352539 -16.33208984 32.85352539 -19.39208984 29.11352539 C-22.6890552 23.72580152 -24.60920034 19.45725282 -23.39208984 13.11352539 C-21.61184514 7.8965516 -19.22278506 3.98893921 -14.39208984 1.11352539 C-9.60189656 0.04179212 -4.88421482 -0.02298772 0 0 Z " fill="#050502" transform="translate(65.39208984375,85.886474609375)"/>
<path d="M0 0 C6.6 0 13.2 0 20 0 C20.639375 2.35125 21.27875 4.7025 21.9375 7.125 C22.13722412 7.85348145 22.33694824 8.58196289 22.54272461 9.33251953 C23.58450345 13.2025836 24.41342107 17.03596131 25 21 C26.50024612 15.64912217 27.96924579 10.31229822 29.125 4.875 C30 1 30 1 31 0 C32.34267413 -0.08631874 33.68974322 -0.10706473 35.03515625 -0.09765625 C35.84404297 -0.09443359 36.65292969 -0.09121094 37.48632812 -0.08789062 C38.33646484 -0.07951172 39.18660156 -0.07113281 40.0625 -0.0625 C40.91650391 -0.05798828 41.77050781 -0.05347656 42.65039062 -0.04882812 C44.76695663 -0.03700373 46.88348685 -0.01906769 49 0 C50.41602691 4.78370831 51.60106845 9.55055395 52.625 14.4375 C53.01558594 16.29181641 53.01558594 16.29181641 53.4140625 18.18359375 C53.70410156 19.57771484 53.70410156 19.57771484 54 21 C55.8537715 16.85910781 56.75441828 12.6880361 57.5625 8.25 C58.86980969 1.13019031 58.86980969 1.13019031 60 0 C61.4887186 -0.08669432 62.981445 -0.10703494 64.47265625 -0.09765625 C65.37177734 -0.09443359 66.27089844 -0.09121094 67.19726562 -0.08789062 C68.61555664 -0.07532227 68.61555664 -0.07532227 70.0625 -0.0625 C71.4865918 -0.05573242 71.4865918 -0.05573242 72.93945312 -0.04882812 C75.29303065 -0.0370011 77.64648477 -0.02052025 80 0 C79.5296835 7.73012197 78.23956037 14.90048747 76.25 22.375 C75.70711608 24.47234155 75.16547486 26.57000511 74.625 28.66796875 C74.35300781 29.71774902 74.08101563 30.7675293 73.80078125 31.84912109 C72.32692118 37.64840101 70.98414971 43.47932543 69.64941406 49.31201172 C69.36662598 50.5246167 69.36662598 50.5246167 69.078125 51.76171875 C68.91731445 52.46256592 68.75650391 53.16341309 68.59082031 53.88549805 C67.9116363 56.31624712 66.93733533 58.65666168 66 61 C59.07 61 52.14 61 45 61 C44.34 58.15375 43.68 55.3075 43 52.375 C42.79117188 51.48989746 42.58234375 50.60479492 42.3671875 49.69287109 C41.38820919 45.37779109 40.76918471 41.45762027 41 37 C40.34 37 39.68 37 39 37 C38.94392578 37.83917969 38.94392578 37.83917969 38.88671875 38.6953125 C38.263159 46.30029611 36.67776322 53.55948483 35 61 C27.74 61 20.48 61 13 61 C12.62488281 59.27136719 12.24976563 57.54273438 11.86328125 55.76171875 C9.16850634 43.43604493 6.38831273 31.16428575 3.078125 18.98828125 C2.89958984 18.32521973 2.72105469 17.6621582 2.53710938 16.97900391 C2.1723609 15.63507159 1.79832521 14.29363238 1.41601562 12.95458984 C1.23232422 12.28250488 1.04863281 11.61041992 0.859375 10.91796875 C0.69405273 10.33168701 0.52873047 9.74540527 0.35839844 9.14135742 C-0.14498704 6.13373207 0 3.04946015 0 0 Z " fill="#050503" transform="translate(14,153)"/>
<path d="M0 0 C10.6425 -0.1546875 10.6425 -0.1546875 21.5 -0.3125 C23.72427734 -0.35802002 25.94855469 -0.40354004 28.24023438 -0.45043945 C30.02472429 -0.46505735 31.80923102 -0.47779494 33.59375 -0.48828125 C34.50286133 -0.51386108 35.41197266 -0.53944092 36.34863281 -0.5657959 C42.81028875 -0.57017134 46.98521741 0.8828044 52 5 C56.54769724 9.90672597 58.48768958 13.91233901 58.3125 20.55859375 C57.5784221 26.29357737 55.33873987 31.20677623 50.875 34.9375 C49.92625 35.618125 48.9775 36.29875 48 37 C47.34 37.66 46.68 38.32 46 39 C57.88 39.33 69.76 39.66 82 40 C82 46.93 82 53.86 82 61 C76.30494062 61.16132587 70.61789334 61.30043866 64.92236328 61.38452148 C62.98816991 61.41958581 61.05416024 61.46725297 59.12060547 61.52807617 C40.96067832 62.08475606 40.96067832 62.08475606 36.0625 57.84375 C35.00020541 56.59666041 33.97569518 55.31594877 33 54 C31.95293492 52.95436447 30.89095944 51.9233809 29.8125 50.91015625 C28.87187939 49.96402975 27.93485303 49.01432577 27 48.0625 C25.35 46.391875 23.7 44.72125 22 43 C21.67 48.94 21.34 54.88 21 61 C14.07 61 7.14 61 0 61 C0 40.87 0 20.74 0 0 Z " fill="#050503" transform="translate(205,86)"/>
<path d="M0 0 C12.21 0 24.42 0 37 0 C38.2684375 5.8471875 38.2684375 5.8471875 39.5625 11.8125 C42.01340225 23.01257743 44.76146712 34.09921963 47.81469727 45.15161133 C48.10014404 46.21017334 48.38559082 47.26873535 48.6796875 48.359375 C49.06229736 49.74334473 49.06229736 49.74334473 49.45263672 51.15527344 C50 54 50 54 50 61 C43.07 61 36.14 61 29 61 C28.505 57.04 28.505 57.04 28 53 C21.73 53 15.46 53 9 53 C8.34 55.64 7.68 58.28 7 61 C0.07 61 -6.86 61 -14 61 C-11.08916154 46.44580771 -7.84746585 32.03643734 -4.3125 17.625 C-2.1778125 8.900625 -2.1778125 8.900625 0 0 Z " fill="#030302" transform="translate(152,86)"/>
<path d="M0 0 C11.88 0 23.76 0 36 0 C41.12102291 20.24590454 46.02467421 40.49568805 50 61 C43.07 61 36.14 61 29 61 C27 56 27 56 27 53 C20.73 53 14.46 53 8 53 C7.67 55.64 7.34 58.28 7 61 C0.07 61 -6.86 61 -14 61 C-13.36840934 54.68409342 -12.82461766 49.55446405 -11.29296875 43.5859375 C-11.12630203 42.92776031 -10.95963531 42.26958313 -10.78791809 41.59146118 C-10.26117648 39.51751861 -9.72466567 37.44626409 -9.1875 35.375 C-8.83982249 34.01449455 -8.49281412 32.65381791 -8.14648438 31.29296875 C-7.4545731 28.57687098 -6.75857749 25.86186623 -6.06005859 23.14746094 C-4.77640714 18.14555925 -3.53236256 13.13378831 -2.29716492 8.11972046 C-1.6159158 5.37229115 -0.89568074 2.68704221 0 0 Z " fill="#040402" transform="translate(106,153)"/>
<path d="M0 0 C7.074375 -0.12375 14.14875 -0.2475 21.4375 -0.375 C23.65267334 -0.42962402 25.86784668 -0.48424805 28.15014648 -0.54052734 C29.93210682 -0.5580727 31.71409145 -0.57335688 33.49609375 -0.5859375 C34.40008911 -0.6166333 35.30408447 -0.6473291 36.23547363 -0.67895508 C43.26161327 -0.68466507 47.68609924 1.429422 53 6 C57.40439454 11.2637886 57.67538431 16.05097069 57.44921875 22.8359375 C56.6930013 28.16233869 54.57973711 31.94485058 50.3671875 35.30078125 C48.94168078 36.24767581 47.47333653 37.12939205 46 38 C45.505 38.99 45.505 38.99 45 40 C58.2 40 71.4 40 85 40 C81.04 34.72 77.08 29.44 73 24 C71.24385931 20.48771862 71.45592687 16.83296463 72 13 C74.15724587 7.88884901 77.3521964 4.05776553 82 1 C84.78061975 0.07312675 86.42051859 -0.12193396 89.2878418 -0.11352539 C90.14850754 -0.11344986 91.00917328 -0.11337433 91.8959198 -0.11329651 C92.82100845 -0.10813522 93.74609711 -0.10297394 94.69921875 -0.09765625 C95.64940384 -0.0962413 96.59958893 -0.09482635 97.5785675 -0.09336853 C100.61491029 -0.08776875 103.65117948 -0.07521632 106.6875 -0.0625 C108.74544164 -0.05748497 110.80338444 -0.05292207 112.86132812 -0.04882812 C117.90760329 -0.03865008 122.9537192 -0.01907456 128 0 C128 6.6 128 13.2 128 20 C117.77 20 107.54 20 97 20 C102.36592141 26.77041168 102.36592141 26.77041168 108 33.3125 C111.41851606 38.23609652 110.99389836 44.32358048 110 50 C107.53266006 55.25330988 104.09812492 58.32415286 99 61 C96.27998352 61.48188782 96.27998352 61.48188782 93.30200195 61.6262207 C92.17925369 61.68409256 91.05650543 61.74196442 89.8997345 61.80158997 C84.73499983 61.97677042 79.57092833 62.12371758 74.40405273 62.21508789 C71.69517101 62.26811934 68.99592706 62.37167711 66.29077148 62.52270508 C42.63350124 63.7459817 42.63350124 63.7459817 34.16162109 56.93505859 C30.17510126 53.18255407 26.66400755 49.13629237 23.39836121 44.74504089 C22.10030608 42.87585313 22.10030608 42.87585313 20 42 C20 48.27 20 54.54 20 61 C13.4 61 6.8 61 0 61 C0 40.87 0 20.74 0 0 Z M3 3 C3 21.15 3 39.3 3 58 C7.62 58 12.24 58 17 58 C17.33 51.73 17.66 45.46 18 39 C24.69031625 40.11505271 24.69031625 40.11505271 27.53027344 43.98681641 C33.42094027 51.30779581 38.83720849 57.98472577 48.52148438 59.54589844 C55.78577048 60.13098862 62.98517955 59.77039679 70.25 59.375 C72.76676229 59.31887007 75.28371366 59.27063993 77.80078125 59.23046875 C91.33392397 59.60061489 91.33392397 59.60061489 103 54 C106.73535245 49.87145256 107.91666673 46.19010585 107.71875 40.72265625 C106.2351064 35.10254978 101.89278809 31.1401559 98 27 C93 21.38356164 93 21.38356164 93 18 C108.345 17.505 108.345 17.505 124 17 C124 12.38 124 7.76 124 3 C118.82219834 2.95045895 113.64453554 2.91421364 108.46655273 2.89013672 C106.70611161 2.88009649 104.94568709 2.86646156 103.18530273 2.84912109 C100.65083715 2.82478564 98.11659261 2.81349704 95.58203125 2.8046875 C94.79850784 2.79436493 94.01498444 2.78404236 93.2077179 2.77340698 C88.11272475 2.77236745 84.29184339 3.25004583 80.19921875 6.375 C77.00973897 9.80348472 75.56827137 12.31661416 75.375 17.0625 C75.8003669 23.09003948 78.41717993 26.13930102 82.26953125 30.66796875 C83.08808594 31.64378906 83.90664062 32.61960937 84.75 33.625 C85.54921875 34.54539062 86.3484375 35.46578125 87.171875 36.4140625 C89 39 89 39 89 43 C82.82538359 43.14847404 76.65180895 43.25727723 70.47583008 43.32958984 C68.37571104 43.35973742 66.27571766 43.40066333 64.17602539 43.45263672 C61.15479534 43.52554078 58.13523127 43.55947639 55.11328125 43.5859375 C54.17664139 43.61690521 53.24000153 43.64787292 52.27497864 43.67977905 C45.86260016 43.68307932 45.86260016 43.68307932 43.26278687 41.62432861 C41.86791992 39.96337891 41.86791992 39.96337891 40 37 C40.59167969 36.72027344 41.18335938 36.44054687 41.79296875 36.15234375 C47.17886688 33.4198571 51.73355538 30.82955707 54 25 C54.88014944 19.60122619 54.70940296 15.41880591 52.25 10.5 C48.19844916 5.99827685 44.25737932 3.37688449 38.03570557 2.82611084 C35.79462118 2.76973584 33.56188492 2.77483121 31.3203125 2.8046875 C30.59900146 2.80670166 29.87769043 2.80871582 29.13452148 2.81079102 C26.46461541 2.82117976 23.79480067 2.84910186 21.125 2.875 C15.14375 2.91625 9.1625 2.9575 3 3 Z " fill="#E4DB3A" transform="translate(159,153)"/>
<path d="M0 0 C1.23026413 -0.00021904 1.23026413 -0.00021904 2.48538208 -0.0004425 C5.17989808 0.00025077 7.87434382 0.00801567 10.56884766 0.01586914 C12.44357261 0.0177354 14.31829806 0.01915832 16.19302368 0.02015686 C21.11506509 0.02396566 26.03707675 0.03378193 30.95910645 0.04486084 C35.98656817 0.0551102 41.01403473 0.05966202 46.04150391 0.06469727 C55.89698779 0.07540571 65.75244184 0.09298922 75.60791016 0.11352539 C75.60791016 6.71352539 75.60791016 13.31352539 75.60791016 20.11352539 C68.01791016 20.11352539 60.42791016 20.11352539 52.60791016 20.11352539 C52.60791016 33.64352539 52.60791016 47.17352539 52.60791016 61.11352539 C45.67791016 61.11352539 38.74791016 61.11352539 31.60791016 61.11352539 C31.60791016 47.58352539 31.60791016 34.05352539 31.60791016 20.11352539 C21.70791016 20.11352539 11.80791016 20.11352539 1.60791016 20.11352539 C6.9934171 26.89759701 6.9934171 26.89759701 12.60791016 33.48852539 C15.87231318 38.18526852 15.48977773 43.67052306 14.60791016 49.11352539 C12.58318834 54.84404539 9.59264256 57.58170178 4.10131836 60.25683594 C-0.80292491 61.94184423 -5.85645469 61.59705105 -10.98583984 61.50415039 C-12.17310669 61.4984906 -13.36037354 61.49283081 -14.58361816 61.48699951 C-18.35352916 61.46471549 -22.12246898 61.41453124 -25.89208984 61.36352539 C-28.45718023 61.34345021 -31.0222856 61.32520123 -33.58740234 61.30883789 C-39.85600232 61.26487639 -46.12388175 61.19590176 -52.39208984 61.11352539 C-52.39208984 54.18352539 -52.39208984 47.25352539 -52.39208984 40.11352539 C-38.53208984 40.11352539 -24.67208984 40.11352539 -10.39208984 40.11352539 C-13.36208984 36.48352539 -16.33208984 32.85352539 -19.39208984 29.11352539 C-22.6890552 23.72580152 -24.60920034 19.45725282 -23.39208984 13.11352539 C-21.61184514 7.8965516 -19.22278506 3.98893921 -14.39208984 1.11352539 C-9.60189656 0.04179212 -4.88421482 -0.02298772 0 0 Z M-18.82958984 10.36352539 C-19.82465793 15.22830269 -20.46229564 19.96962779 -18.19287109 24.51586914 C-15.67654886 28.1457049 -12.80393174 31.43238466 -9.88818359 34.74047852 C-7.38137788 37.66012612 -6.34995231 39.28207551 -5.39208984 43.11352539 C-19.91208984 43.11352539 -34.43208984 43.11352539 -49.39208984 43.11352539 C-49.39208984 48.06352539 -49.39208984 53.01352539 -49.39208984 58.11352539 C-42.56026397 58.21273645 -35.72886168 58.28515694 -28.89648438 58.33325195 C-26.57446991 58.35331116 -24.25250562 58.3805653 -21.93066406 58.4152832 C-18.58434639 58.4640508 -15.23869926 58.48655182 -11.89208984 58.50415039 C-10.86156494 58.52479553 -9.83104004 58.54544067 -8.76928711 58.56671143 C-2.54434946 58.5686297 2.50572776 57.91567766 7.60791016 54.11352539 C10.39087833 50.94267111 11.5093973 47.80311541 12.10791016 43.61352539 C11.01225679 35.94395185 5.89807308 30.85541452 0.87402344 25.28857422 C-0.44287109 23.78540039 -0.44287109 23.78540039 -2.39208984 21.11352539 C-1.89708984 19.62852539 -1.89708984 19.62852539 -1.39208984 18.11352539 C10.48791016 17.78352539 22.36791016 17.45352539 34.60791016 17.11352539 C34.60791016 30.64352539 34.60791016 44.17352539 34.60791016 58.11352539 C39.55791016 58.11352539 44.50791016 58.11352539 49.60791016 58.11352539 C49.60791016 44.58352539 49.60791016 31.05352539 49.60791016 17.11352539 C57.19791016 17.11352539 64.78791016 17.11352539 72.60791016 17.11352539 C72.60791016 12.49352539 72.60791016 7.87352539 72.60791016 3.11352539 C61.90706606 2.99753036 51.20637224 2.9087586 40.50502682 2.85446453 C35.53559556 2.8284022 30.56659532 2.79306563 25.59741211 2.73632812 C20.79928429 2.68188832 16.00157032 2.65207955 11.20315742 2.63913918 C9.37513275 2.62992076 7.54713001 2.61191898 5.71928215 2.58487511 C3.15293822 2.54842467 0.58829083 2.54358656 -1.97827148 2.54589844 C-2.72921585 2.52792206 -3.48016022 2.50994568 -4.25386047 2.49142456 C-10.54952441 2.5525436 -15.38321464 4.96919898 -18.82958984 10.36352539 Z " fill="#E8DF31" transform="translate(65.39208984375,85.886474609375)"/>
<path d="M0 0 C6.6 0 13.2 0 20 0 C20.639375 2.35125 21.27875 4.7025 21.9375 7.125 C22.13722412 7.85348145 22.33694824 8.58196289 22.54272461 9.33251953 C23.58450345 13.2025836 24.41342107 17.03596131 25 21 C26.50024612 15.64912217 27.96924579 10.31229822 29.125 4.875 C30 1 30 1 31 0 C32.34267413 -0.08631874 33.68974322 -0.10706473 35.03515625 -0.09765625 C35.84404297 -0.09443359 36.65292969 -0.09121094 37.48632812 -0.08789062 C38.33646484 -0.07951172 39.18660156 -0.07113281 40.0625 -0.0625 C40.91650391 -0.05798828 41.77050781 -0.05347656 42.65039062 -0.04882812 C44.76695663 -0.03700373 46.88348685 -0.01906769 49 0 C50.41602691 4.78370831 51.60106845 9.55055395 52.625 14.4375 C53.01558594 16.29181641 53.01558594 16.29181641 53.4140625 18.18359375 C53.70410156 19.57771484 53.70410156 19.57771484 54 21 C55.8537715 16.85910781 56.75441828 12.6880361 57.5625 8.25 C58.86980969 1.13019031 58.86980969 1.13019031 60 0 C61.4887186 -0.08669432 62.981445 -0.10703494 64.47265625 -0.09765625 C65.37177734 -0.09443359 66.27089844 -0.09121094 67.19726562 -0.08789062 C68.61555664 -0.07532227 68.61555664 -0.07532227 70.0625 -0.0625 C71.4865918 -0.05573242 71.4865918 -0.05573242 72.93945312 -0.04882812 C75.29303065 -0.0370011 77.64648477 -0.02052025 80 0 C79.5296835 7.73012197 78.23956037 14.90048747 76.25 22.375 C75.70711608 24.47234155 75.16547486 26.57000511 74.625 28.66796875 C74.35300781 29.71774902 74.08101563 30.7675293 73.80078125 31.84912109 C72.32692118 37.64840101 70.98414971 43.47932543 69.64941406 49.31201172 C69.36662598 50.5246167 69.36662598 50.5246167 69.078125 51.76171875 C68.91731445 52.46256592 68.75650391 53.16341309 68.59082031 53.88549805 C67.9116363 56.31624712 66.93733533 58.65666168 66 61 C59.07 61 52.14 61 45 61 C44.34 58.15375 43.68 55.3075 43 52.375 C42.79117188 51.48989746 42.58234375 50.60479492 42.3671875 49.69287109 C41.38820919 45.37779109 40.76918471 41.45762027 41 37 C40.34 37 39.68 37 39 37 C38.94392578 37.83917969 38.94392578 37.83917969 38.88671875 38.6953125 C38.263159 46.30029611 36.67776322 53.55948483 35 61 C27.74 61 20.48 61 13 61 C12.62488281 59.27136719 12.24976563 57.54273438 11.86328125 55.76171875 C9.16850634 43.43604493 6.38831273 31.16428575 3.078125 18.98828125 C2.89958984 18.32521973 2.72105469 17.6621582 2.53710938 16.97900391 C2.1723609 15.63507159 1.79832521 14.29363238 1.41601562 12.95458984 C1.23232422 12.28250488 1.04863281 11.61041992 0.859375 10.91796875 C0.69405273 10.33168701 0.52873047 9.74540527 0.35839844 9.14135742 C-0.14498704 6.13373207 0 3.04946015 0 0 Z M3 3 C5.76813018 16.11219559 8.98355456 29.10187355 12.26953125 42.09179688 C12.44168655 42.77376633 12.61384186 43.45573578 12.79121399 44.15837097 C13.26472793 46.03274201 13.74009343 47.90664501 14.21557617 49.78051758 C14.87926678 52.504479 15.45015908 55.25079538 16 58 C21.28 58 26.56 58 32 58 C35.96 40.675 35.96 40.675 40 23 C42.64 34.55 45.28 46.1 48 58 C53.28 58 58.56 58 64 58 C64.47179687 55.91365234 64.47179687 55.91365234 64.953125 53.78515625 C66.98160043 44.82911057 69.01407216 35.87452601 71.125 26.9375 C71.28548828 26.25679443 71.44597656 25.57608887 71.61132812 24.87475586 C72.37499301 21.63821522 73.14249085 18.4026345 73.9140625 15.16796875 C74.18992187 13.99878906 74.46578125 12.82960937 74.75 11.625 C75.11351563 10.09746094 75.11351563 10.09746094 75.484375 8.5390625 C76.09950734 5.94181663 76.09950734 5.94181663 76 3 C71.38 3 66.76 3 62 3 C61.73445313 4.45792969 61.46890625 5.91585937 61.1953125 7.41796875 C60.83881185 9.34119594 60.48202606 11.26437028 60.125 13.1875 C59.95097656 14.14720703 59.77695313 15.10691406 59.59765625 16.09570312 C59.42363281 17.02705078 59.24960938 17.95839844 59.0703125 18.91796875 C58.91320801 19.77156982 58.75610352 20.6251709 58.59423828 21.50463867 C57.9667486 24.1396313 57.01369908 26.49140309 56 29 C55.58911437 30.59535222 55.21195834 32.19991364 54.875 33.8125 C54.70742187 34.60269531 54.53984375 35.39289063 54.3671875 36.20703125 C54.24601562 36.79871094 54.12484375 37.39039063 54 38 C53.89977539 37.43716309 53.79955078 36.87432617 53.69628906 36.29443359 C51.66310187 24.98281277 49.38323052 13.9954992 46 3 C41.71 3 37.42 3 33 3 C30.69 13.56 28.38 24.12 26 35 C23.86298404 31.79447606 23.32290778 29.61169314 22.52734375 25.87109375 C22.26759766 24.67162109 22.00785156 23.47214844 21.74023438 22.23632812 C21.47533203 20.98271484 21.21042969 19.72910156 20.9375 18.4375 C20.40722875 15.95654266 19.87478809 13.47604768 19.33984375 10.99609375 C19.10644287 9.89450928 18.87304199 8.7929248 18.63256836 7.65795898 C18.11736192 5.04473952 18.11736192 5.04473952 17 3 C12.38 3 7.76 3 3 3 Z " fill="#E2D937" transform="translate(14,153)"/>
<path d="M0 0 C10.6425 -0.1546875 10.6425 -0.1546875 21.5 -0.3125 C23.72427734 -0.35802002 25.94855469 -0.40354004 28.24023438 -0.45043945 C30.02472429 -0.46505735 31.80923102 -0.47779494 33.59375 -0.48828125 C34.50286133 -0.51386108 35.41197266 -0.53944092 36.34863281 -0.5657959 C42.81028875 -0.57017134 46.98521741 0.8828044 52 5 C56.54769724 9.90672597 58.48768958 13.91233901 58.3125 20.55859375 C57.5784221 26.29357737 55.33873987 31.20677623 50.875 34.9375 C49.92625 35.618125 48.9775 36.29875 48 37 C47.34 37.66 46.68 38.32 46 39 C57.88 39.33 69.76 39.66 82 40 C82 46.93 82 53.86 82 61 C76.30494062 61.16132587 70.61789334 61.30043866 64.92236328 61.38452148 C62.98816991 61.41958581 61.05416024 61.46725297 59.12060547 61.52807617 C40.96067832 62.08475606 40.96067832 62.08475606 36.0625 57.84375 C35.00020541 56.59666041 33.97569518 55.31594877 33 54 C31.95293492 52.95436447 30.89095944 51.9233809 29.8125 50.91015625 C28.87187939 49.96402975 27.93485303 49.01432577 27 48.0625 C25.35 46.391875 23.7 44.72125 22 43 C21.67 48.94 21.34 54.88 21 61 C14.07 61 7.14 61 0 61 C0 40.87 0 20.74 0 0 Z M3 3 C3 21.15 3 39.3 3 58 C7.62 58 12.24 58 17 58 C17.06058594 56.72382813 17.12117188 55.44765625 17.18359375 54.1328125 C17.26799568 52.46352984 17.35264386 50.79425963 17.4375 49.125 C17.47681641 48.28324219 17.51613281 47.44148438 17.55664062 46.57421875 C17.59853516 45.76855469 17.64042969 44.96289062 17.68359375 44.1328125 C17.73858032 43.01737061 17.73858032 43.01737061 17.79467773 41.87939453 C18 40 18 40 19 38 C21.7231834 38.35477963 22.78308283 38.7498829 24.61108398 40.85766602 C25.15063721 41.64842529 25.69019043 42.43918457 26.24609375 43.25390625 C31.73278809 50.41947102 37.16968608 57.48180079 46.51367188 58.89550781 C57.29593017 59.91810169 68.24855832 59.0474111 79 58 C79 53.38 79 48.76 79 44 C77.99098633 43.99589111 76.98197266 43.99178223 75.94238281 43.98754883 C72.19219148 43.96574671 68.4430478 43.91144782 64.69335938 43.84741211 C63.07171687 43.82424116 61.44992407 43.80983846 59.828125 43.80444336 C57.49384004 43.79514627 55.16191559 43.754147 52.828125 43.70703125 C52.10506165 43.7109639 51.38199829 43.71489655 50.63702393 43.71894836 C46.8372593 43.60925 45.30904486 43.30808104 42.57324219 40.58081055 C41 38 41 38 40 36 C40.680625 35.95875 41.36125 35.9175 42.0625 35.875 C47.32372849 34.30782556 51.00292569 30.49561147 54 26 C54.82444952 20.66661415 55.23871904 15.28258339 52.609375 10.4375 C49.09203639 6.27786477 45.68567396 3.32641176 40.04704285 2.82704163 C37.6890097 2.76892484 35.33901702 2.77513147 32.98046875 2.8046875 C32.21883423 2.80670166 31.45719971 2.80871582 30.67248535 2.81079102 C27.8440951 2.82120659 25.01579111 2.84912904 22.1875 2.875 C12.6896875 2.936875 12.6896875 2.936875 3 3 Z " fill="#E5DC38" transform="translate(205,86)"/>
<path d="M0 0 C7.074375 -0.12375 14.14875 -0.2475 21.4375 -0.375 C23.65267334 -0.42962402 25.86784668 -0.48424805 28.15014648 -0.54052734 C29.93210682 -0.5580727 31.71409145 -0.57335688 33.49609375 -0.5859375 C34.40008911 -0.6166333 35.30408447 -0.6473291 36.23547363 -0.67895508 C43.26161327 -0.68466507 47.68609924 1.429422 53 6 C57.40384621 11.26313328 57.68290479 16.0545138 57.44140625 22.83984375 C56.7876865 27.52001432 55.32803983 30.64824492 52 34 C49.44917861 35.92372482 46.83733973 37.53556659 44 39 C42.68 38.01 41.36 37.02 40 36 C40.60328125 35.70867187 41.2065625 35.41734375 41.828125 35.1171875 C46.93167894 32.49955822 50.6658092 30.48027404 53 25 C53.74219537 19.76556953 53.61170626 15.46277583 51.5625 10.5625 C43.18499814 2.18499814 31.97693643 3.3442432 20.9375 3.25 C15.018125 3.1675 9.09875 3.085 3 3 C3 21.15 3 39.3 3 58 C7.62 58 12.24 58 17 58 C17 51.73 17 45.46 17 39 C22 38 22 38 23.81640625 39.01171875 C24.39261719 39.56472656 24.96882813 40.11773437 25.5625 40.6875 C26.23829102 41.30592773 26.91408203 41.92435547 27.61035156 42.56152344 C30 45 30 45 32.04760742 48.00219727 C35.51033552 52.78914322 39.02515234 56.31386833 44.931427 57.67611694 C53.51154854 58.69542154 62.12837439 58.43154183 70.75 58.25 C73.39321 58.23801192 76.0364505 58.23144991 78.6796875 58.23046875 C85.12147505 58.21633773 91.55966527 58.13473021 98 58 C98 58.66 98 59.32 98 60 C90.60303968 60.398112 83.20846485 60.69795572 75.80287266 60.88080692 C72.36133726 60.96869673 68.92723909 61.08721245 65.48999023 61.2824707 C41.49556761 62.61082489 41.49556761 62.61082489 33.36669922 56.17529297 C29.60418088 52.64752987 26.32686373 48.83222995 23.30259705 44.6572113 C22.08391902 42.86411084 22.08391902 42.86411084 20 42 C20 48.27 20 54.54 20 61 C13.4 61 6.8 61 0 61 C0 40.87 0 20.74 0 0 Z " fill="#ECE336" transform="translate(159,153)"/>
<path d="M0 0 C12.21 0 24.42 0 37 0 C38.2684375 5.8471875 38.2684375 5.8471875 39.5625 11.8125 C42.01340225 23.01257743 44.76146712 34.09921963 47.81469727 45.15161133 C48.10014404 46.21017334 48.38559082 47.26873535 48.6796875 48.359375 C49.06229736 49.74334473 49.06229736 49.74334473 49.45263672 51.15527344 C50 54 50 54 50 61 C43.07 61 36.14 61 29 61 C28.505 57.04 28.505 57.04 28 53 C21.73 53 15.46 53 9 53 C8.34 55.64 7.68 58.28 7 61 C0.07 61 -6.86 61 -14 61 C-11.08916154 46.44580771 -7.84746585 32.03643734 -4.3125 17.625 C-2.1778125 8.900625 -2.1778125 8.900625 0 0 Z M3 3 C1.46668168 9.06404319 -0.06435886 15.12857373 -1.58984375 21.19458008 C-2.10840421 23.25382622 -2.62823658 25.31275254 -3.14941406 27.37133789 C-3.90251853 30.34696618 -4.65089292 33.32375196 -5.3984375 36.30078125 C-5.6287265 37.2064534 -5.8590155 38.11212555 -6.09628296 39.04524231 C-7.6671816 45.32721945 -8.89404972 51.61934401 -10 58 C-5.38 58 -0.76 58 4 58 C6.24759378 53.27854301 6.24759378 53.27854301 6 49 C13.92 49.33 21.84 49.66 30 50 C30.66 52.64 31.32 55.28 32 58 C36.62 58 41.24 58 46 58 C45.35259199 51.85318111 44.16247776 45.99802118 42.6875 40 C42.46602295 39.08371826 42.2445459 38.16743652 42.01635742 37.22338867 C40.35727656 30.38287982 38.64548422 23.55582152 36.89453125 16.73828125 C35.80541209 12.18680947 34.91781672 7.58908361 34 3 C23.77 3 13.54 3 3 3 Z " fill="#D2CA35" transform="translate(152,86)"/>
<path d="M0 0 C11.88 0 23.76 0 36 0 C41.12102291 20.24590454 46.02467421 40.49568805 50 61 C43.07 61 36.14 61 29 61 C27 56 27 56 27 53 C20.73 53 14.46 53 8 53 C7.67 55.64 7.34 58.28 7 61 C0.07 61 -6.86 61 -14 61 C-13.36840934 54.68409342 -12.82461766 49.55446405 -11.29296875 43.5859375 C-11.12630203 42.92776031 -10.95963531 42.26958313 -10.78791809 41.59146118 C-10.26117648 39.51751861 -9.72466567 37.44626409 -9.1875 35.375 C-8.83982249 34.01449455 -8.49281412 32.65381791 -8.14648438 31.29296875 C-7.4545731 28.57687098 -6.75857749 25.86186623 -6.06005859 23.14746094 C-4.77640714 18.14555925 -3.53236256 13.13378831 -2.29716492 8.11972046 C-1.6159158 5.37229115 -0.89568074 2.68704221 0 0 Z M2 3 C1.505 5.31 1.01 7.62 0.5 10 C-0.89591448 16.41256047 -2.43210597 22.78415762 -4.046875 29.14453125 C-4.22694092 29.85535858 -4.40700684 30.56618591 -4.5925293 31.29855347 C-5.50578253 34.89851626 -6.42678591 38.49628957 -7.35742188 42.09179688 C-7.70201241 43.44266001 -8.04642115 44.79356954 -8.390625 46.14453125 C-8.70032227 47.34440674 -9.01001953 48.54428223 -9.32910156 49.78051758 C-10.17000388 53.26770112 -10.17000388 53.26770112 -10 58 C-5.38 58 -0.76 58 4 58 C4.33 55.03 4.66 52.06 5 49 C13.25 49 21.5 49 30 49 C30.495 53.455 30.495 53.455 31 58 C35.95 58 40.9 58 46 58 C43.49571865 46.62638889 40.94103454 35.26438817 38.359375 23.90811157 C37.99437619 22.30087433 37.63028307 20.69343113 37.26708984 19.08578491 C36.7495742 16.79619612 36.22871398 14.50739241 35.70703125 12.21875 C35.47129143 11.1713842 35.47129143 11.1713842 35.23078918 10.1028595 C34.40475956 6.45321687 34.40475956 6.45321687 33 3 C22.77 3 12.54 3 2 3 Z " fill="#DBD23A" transform="translate(106,153)"/>
<path d="M0 0 C3.23057217 -0.13523325 6.4554669 -0.23421546 9.6875 -0.3125 C10.59951172 -0.35439453 11.51152344 -0.39628906 12.45117188 -0.43945312 C17.0689276 -0.52341232 19.28154337 -0.52349855 23.109375 2.265625 C25.95619378 6.38292489 25.70229371 8.083944 25 13 C22.79022167 15.99898488 20.46067187 17.69663008 17 19 C14.07785874 19.24214582 11.17949727 19.18767194 8.25 19.125 C4.16625 19.063125 4.16625 19.063125 0 19 C0 12.73 0 6.46 0 0 Z " fill="#F8EE35" transform="translate(222,100)"/>
<path d="M0 0 C2.866875 -0.061875 5.73375 -0.12375 8.6875 -0.1875 C10.02880981 -0.22846802 10.02880981 -0.22846802 11.3972168 -0.27026367 C16.11847334 -0.3195041 19.15164086 -0.03895282 23 3 C25 5 25 5 25.4375 8.25 C24.99840673 12.01365661 24.24314261 13.93214414 21.74487305 16.76953125 C18.16898348 19.29121635 13.88043277 18.60612986 9.6875 18.375 C8.75615234 18.34792969 7.82480469 18.32085937 6.86523438 18.29296875 C4.57582365 18.22252534 2.28760986 18.1149125 0 18 C0 12.06 0 6.12 0 0 Z " fill="#DCD432" transform="translate(176,167)"/>
<path d="M0 0 C2.83616529 2.83616529 3.39019984 6.2328577 4.4375 10 C4.87724198 11.545676 5.31734477 13.09124941 5.7578125 14.63671875 C6.07540527 15.76086182 6.07540527 15.76086182 6.39941406 16.90771484 C7.37286661 20.29897028 8.44320732 23.65973556 9.51953125 27.01953125 C10 29 10 29 10 33 C3.4 33 -3.2 33 -10 33 C-7.97751047 24.61041382 -5.88119909 16.30190095 -3.3125 8.0625 C-3.09827393 7.37091797 -2.88404785 6.67933594 -2.66333008 5.96679688 C-1.12929377 1.12929377 -1.12929377 1.12929377 0 0 Z " fill="#D8CF35" transform="translate(170,94)"/>
<path d="M0 0 C2.40079032 2.89457878 3.59987932 5.33342149 4.5703125 8.95703125 C4.82683594 9.90513672 5.08335937 10.85324219 5.34765625 11.83007812 C5.60417969 12.81427734 5.86070312 13.79847656 6.125 14.8125 C6.38925781 15.78509766 6.65351563 16.75769531 6.92578125 17.75976562 C8.29532961 22.89383397 9.24186553 27.69305873 10 33 C3.73 33 -2.54 33 -9 33 C-7.1158549 21.6951294 -3.78228891 10.80366566 0 0 Z " fill="#E2DB30" transform="translate(123,161)"/>
<path d="M0 0 C12.21 0 24.42 0 37 0 C38.2684375 5.8471875 38.2684375 5.8471875 39.5625 11.8125 C42.01340225 23.01257743 44.76146712 34.09921963 47.81469727 45.15161133 C48.10014404 46.21017334 48.38559082 47.26873535 48.6796875 48.359375 C49.06229736 49.74334473 49.06229736 49.74334473 49.45263672 51.15527344 C50 54 50 54 50 61 C43.73 61 37.46 61 31 61 C34 58 34 58 36.91796875 57.70703125 C37.99691406 57.74183594 39.07585937 57.77664062 40.1875 57.8125 C41.27417969 57.83957031 42.36085937 57.86664063 43.48046875 57.89453125 C44.72763672 57.94673828 44.72763672 57.94673828 46 58 C44.91781656 53.49972282 43.83424907 48.99977989 42.75 44.5 C42.59004547 43.83584076 42.43009094 43.17168152 42.26528931 42.48739624 C40.17143913 33.79683056 38.0515797 25.11451114 35.82421875 16.45703125 C34.76025366 11.99442884 33.87420378 7.50308067 33 3 C32.13721436 2.97494385 31.27442871 2.9498877 30.38549805 2.92407227 C27.18176231 2.82888615 23.97818463 2.72965556 20.7746582 2.62768555 C19.38864017 2.58439782 18.00257094 2.54271836 16.61645508 2.50268555 C14.62308202 2.44483416 12.62989435 2.38070224 10.63671875 2.31640625 C8.83787231 2.26141968 8.83787231 2.26141968 7.00268555 2.20532227 C4 2 4 2 1 1 C0.67 1.99 0.34 2.98 0 4 C0 2.68 0 1.36 0 0 Z " fill="#DBD238" transform="translate(152,86)"/>
<path d="M0 0 C2.06209397 3.09314096 2.6037016 5.04456612 3.3671875 8.63671875 C3.61106201 9.76368164 3.85493652 10.89064453 4.10620117 12.05175781 C4.35990479 13.25155273 4.6136084 14.45134766 4.875 15.6875 C5.40847979 18.15531092 5.9436288 20.62276161 6.48046875 23.08984375 C6.74005371 24.28335449 6.99963867 25.47686523 7.26708984 26.70654297 C8.16510459 30.74192567 9.15035864 34.74849191 10.1875 38.75 C12.07869783 46.12488025 13.56245303 53.52475576 15 61 C8.07 61 1.14 61 -6 61 C-8 56 -8 56 -8 53 C-14.27 53 -20.54 53 -27 53 C-27 52.67 -27 52.34 -27 52 C-17.595 51.505 -17.595 51.505 -8 51 C-15.26 51 -22.52 51 -30 51 C-30 50.34 -30 49.68 -30 49 C-21.75 49 -13.5 49 -5 49 C-4.67 51.97 -4.34 54.94 -4 58 C0.95 58 5.9 58 11 58 C10.42765625 56.22882813 9.8553125 54.45765625 9.265625 52.6328125 C6.89161518 44.91414036 5.05135718 37.10634954 3.28027344 29.23046875 C2.74263211 26.8422719 2.19604384 24.45624208 1.6484375 22.0703125 C1.30156313 20.54438899 0.95518975 19.01835149 0.609375 17.4921875 C0.44693298 16.78287079 0.28449097 16.07355408 0.11712646 15.34274292 C-0.52065879 12.49050551 -1 9.93363897 -1 7 C-0.34 7 0.32 7 1 7 C0.67 4.69 0.34 2.38 0 0 Z " fill="#CCC438" transform="translate(141,153)"/>
<path d="M0 0 C11.88 0 23.76 0 36 0 C35.67 1.65 35.34 3.3 35 5 C34.89510079 6.38028097 34.82623249 7.76380346 34.79467773 9.14770508 C34.77473251 9.92813675 34.75478729 10.70856842 34.73423767 11.51264954 C34.70916893 12.75355598 34.70916893 12.75355598 34.68359375 14.01953125 C34.66281265 14.87810226 34.64203156 15.73667328 34.62062073 16.6212616 C34.55547477 19.35159654 34.49640346 22.08202395 34.4375 24.8125 C34.3942815 26.66862918 34.35066616 28.52474916 34.30664062 30.38085938 C34.19982939 34.92047925 34.09846435 39.46019172 34 44 C33.67 44 33.34 44 33 44 C33 30.47 33 16.94 33 3 C23.1 3 13.2 3 3 3 C8.38550694 9.78407162 8.38550694 9.78407162 14 16.375 C17.25285602 21.05512958 16.91836629 26.57589909 16 32 C14.43010134 35.71696594 12.6961797 39.15191015 9 41 C6.3276379 41.13415472 3.67749512 41.04318541 1 41 C4 39 4 39 6.5 37.75 C9.71114558 35.50219809 10.65967039 33.6682705 12 30 C12.73436497 24.22998949 11.36809514 20.56977733 8 16 C4.74083373 11.93370477 1.39868733 7.95000112 -2 4 C-1.34 2.68 -0.68 1.36 0 0 Z " fill="#E0D633" transform="translate(64,103)"/>
<path d="M0 0 C6.06911744 -0.04588161 12.1376345 -0.0857161 18.20678711 -0.10986328 C20.271912 -0.11992835 22.33702263 -0.13358154 24.40209961 -0.15087891 C27.36836264 -0.17510493 30.33443744 -0.18647797 33.30078125 -0.1953125 C34.2258699 -0.20563507 35.15095856 -0.21595764 36.1040802 -0.22659302 C36.96474594 -0.22674408 37.82541168 -0.22689514 38.7121582 -0.22705078 C39.46938675 -0.231492 40.2266153 -0.23593323 41.00679016 -0.24050903 C43 0 43 0 46 2 C31.81 2 17.62 2 3 2 C3 6.95 3 11.9 3 17 C31.215 16.505 31.215 16.505 60 16 C56.98390971 19.01609029 55.7632666 19.91204593 51.58918762 20.12025452 C50.63654526 20.11803391 49.68390289 20.11581329 48.70239258 20.11352539 C47.62149857 20.11344986 46.54060455 20.11337433 45.42695618 20.11329651 C44.26125595 20.10813522 43.09555573 20.10297394 41.89453125 20.09765625 C40.70018967 20.0962413 39.50584808 20.09482635 38.27531433 20.09336853 C34.45435092 20.0877635 30.63344575 20.07521011 26.8125 20.0625 C24.22461022 20.05748565 21.63671952 20.05292263 19.04882812 20.04882812 C12.69919625 20.03779242 6.34960801 20.02052437 0 20 C0 13.4 0 6.8 0 0 Z " fill="#F2E936" transform="translate(13,127)"/>
<path d="M0 0 C0.33 0 0.66 0 1 0 C1 2.64 1 5.28 1 8 C1.66 8 2.32 8 3 8 C3 5.69 3 3.38 3 1 C3.33 1 3.66 1 4 1 C4.05994141 1.89138672 4.05994141 1.89138672 4.12109375 2.80078125 C5.28225259 12.01837548 10.75395079 17.38590002 16.84765625 24.0078125 C18.39492053 26.68274396 17.70331602 28.07927235 17 31 C10.84373291 31.17339987 4.68889488 31.30023607 -1.46923828 31.38452148 C-3.56258918 31.41966439 -5.65576899 31.46739021 -7.74853516 31.52807617 C-10.76247374 31.61326826 -13.7741372 31.6527492 -16.7890625 31.68359375 C-18.18628036 31.73778725 -18.18628036 31.73778725 -19.61172485 31.79307556 C-26.02355328 31.79692587 -26.02355328 31.79692587 -28.9664917 29.39505005 C-30.46263122 27.66077039 -31.77645843 25.9340337 -33 24 C-28.125 24.875 -28.125 24.875 -27 26 C-24.04470496 26.16029688 -21.11017543 26.25957328 -18.15234375 26.31640625 C-17.2659169 26.33718735 -16.37949005 26.35796844 -15.46620178 26.37937927 C-12.623383 26.444974 -9.78046883 26.50380552 -6.9375 26.5625 C-5.01496394 26.6056758 -3.09243766 26.64928978 -1.16992188 26.69335938 C3.55328668 26.80066543 8.27659153 26.90190451 13 27 C12.64172119 26.52578613 12.28344238 26.05157227 11.91430664 25.56298828 C10.29536988 23.41824524 8.67890842 21.27164909 7.0625 19.125 C6.49853516 18.37863281 5.93457031 17.63226563 5.35351562 16.86328125 C4.81533203 16.14785156 4.27714844 15.43242187 3.72265625 14.6953125 C3.22515869 14.03547363 2.72766113 13.37563477 2.21508789 12.69580078 C0.10519647 9.75119443 -0.11361822 7.95327532 -0.0625 4.375 C-0.05347656 3.55773437 -0.04445312 2.74046875 -0.03515625 1.8984375 C-0.02355469 1.27195313 -0.01195312 0.64546875 0 0 Z " fill="#DFD638" transform="translate(231,166)"/>
<path d="M0 0 C11.22 0 22.44 0 34 0 C34 6.6 34 13.2 34 20 C20.8 20 7.6 20 -6 20 C-5.505 18.515 -5.505 18.515 -5 17 C7.21 17 19.42 17 32 17 C31.67 12.38 31.34 7.76 31 3 C20.44 2.67 9.88 2.34 -1 2 C-0.67 1.34 -0.34 0.68 0 0 Z " fill="#F5EC35" transform="translate(252,127)"/>
<path d="M0 0 C0.66 0.33 1.32 0.66 2 1 C1.45156876 4.83901868 -0.2765265 6.36163505 -3 9 C-3.90939041 11.72817122 -4.19209074 13.54709777 -4.25 16.375 C-4.28867188 17.50035156 -4.28867188 17.50035156 -4.328125 18.6484375 C-3.47525667 24.76066055 1.66876832 29.2379555 5.6796875 33.62695312 C7.015625 35.16015625 7.015625 35.16015625 9 38 C8.796875 40.37109375 8.796875 40.37109375 8 42 C7.01 41.67 6.02 41.34 5 41 C3.5735686 40.88677175 2.1427751 40.82404524 0.7121582 40.79467773 C-0.14850754 40.77473251 -1.00917328 40.75478729 -1.8959198 40.73423767 C-3.28355278 40.70916893 -3.28355278 40.70916893 -4.69921875 40.68359375 C-6.12449638 40.6524221 -6.12449638 40.6524221 -7.5785675 40.62062073 C-10.61480456 40.55521948 -13.65112831 40.49628396 -16.6875 40.4375 C-18.74545169 40.39430583 -20.80339459 40.35069124 -22.86132812 40.30664062 C-27.90746316 40.19954769 -32.95368543 40.09825354 -38 40 C-38 39.67 -38 39.34 -38 39 C-24.14 39 -10.28 39 4 39 C1.03 35.37 -1.94 31.74 -5 28 C-8.29696535 22.61227613 -10.2171105 18.34372743 -9 12 C-7.17909077 6.66385958 -4.76039106 3.17359404 0 0 Z " fill="#BBB337" transform="translate(51,87)"/>
<path d="M0 0 C0.82062424 0.00007553 1.64124847 0.00015106 2.48674011 0.00022888 C3.80875175 0.00797081 3.80875175 0.00797081 5.1574707 0.01586914 C6.5161602 0.01799156 6.5161602 0.01799156 7.90229797 0.02015686 C10.79598286 0.02575538 13.68959044 0.03830758 16.58325195 0.05102539 C18.54483938 0.05604058 20.50642801 0.06060346 22.46801758 0.06469727 C27.27729217 0.07572432 32.08650895 0.09298792 36.89575195 0.11352539 C36.89575195 1.10352539 36.89575195 2.09352539 36.89575195 3.11352539 C35.74051025 3.13334473 34.58526855 3.15316406 33.39501953 3.17358398 C29.09906634 3.2497948 24.80344503 3.33848828 20.5078125 3.4309082 C18.6504574 3.46913405 16.79302987 3.50399802 14.93554688 3.53540039 C12.26186283 3.58119 9.58867454 3.63916118 6.9152832 3.69946289 C6.08801224 3.7110141 5.26074127 3.72256531 4.40840149 3.73446655 C-1.49424006 3.88474705 -5.36710542 4.45718009 -9.79174805 8.67602539 C-12.7234073 12.39130425 -13.42020926 16.51923505 -14.10424805 21.11352539 C-14.76424805 21.11352539 -15.42424805 21.11352539 -16.10424805 21.11352539 C-16.45905783 16.12647684 -16.68964959 12.28432848 -14.41674805 7.73852539 C-10.13800753 2.8815767 -6.5990022 -0.02030462 0 0 Z " fill="#F0E637" transform="translate(248.104248046875,152.886474609375)"/>
<path d="M0 0 C2.62527189 -0.05382106 5.24944713 -0.09358313 7.875 -0.125 C8.62136719 -0.14175781 9.36773437 -0.15851563 10.13671875 -0.17578125 C12.09194461 -0.1933959 14.04742021 -0.10320189 16 0 C18 2 18 2 18.375 4.9375 C18 8 18 8 16.4296875 9.6796875 C13.09488995 11.49184437 10.51922722 11.29220076 6.75 11.1875 C5.48671875 11.16042969 4.2234375 11.13335937 2.921875 11.10546875 C1.95765625 11.07066406 0.9934375 11.03585938 0 11 C0 7.37 0 3.74 0 0 Z " fill="#070705" transform="translate(226,104)"/>
<path d="M0 0 C3.47850931 -0.17648219 6.95584849 -0.28156271 10.4375 -0.375 C11.41138672 -0.42527344 12.38527344 -0.47554687 13.38867188 -0.52734375 C20.82772747 -0.67662246 25.40626278 1.06705313 31 6 C35.40384621 11.26313328 35.68290479 16.0545138 35.44140625 22.83984375 C34.7876865 27.52001432 33.32803983 30.64824492 30 34 C27.44917861 35.92372482 24.83733973 37.53556659 22 39 C20.68 38.01 19.36 37.02 18 36 C18.60328125 35.70867187 19.2065625 35.41734375 19.828125 35.1171875 C24.93167894 32.49955822 28.6658092 30.48027404 31 25 C31.74219537 19.76556953 31.61170626 15.46277583 29.5625 10.5625 C26.15084887 7.15084887 22.48967816 5.630866 18 4 C18.99 3.67 19.98 3.34 21 3 C21 2.34 21 1.68 21 1 C14.07 1 7.14 1 0 1 C0 0.67 0 0.34 0 0 Z " fill="#D9D035" transform="translate(181,153)"/>
<path d="M0 0 C2.43816585 -0.0809723 4.87364384 -0.14046972 7.3125 -0.1875 C8.34793945 -0.22520508 8.34793945 -0.22520508 9.40429688 -0.26367188 C14.5047999 -0.33759221 14.5047999 -0.33759221 16.98828125 1.35546875 C18 3 18 3 17.875 5.5 C16.89580542 8.29769879 16.39886657 9.28369753 14 11 C10.64453125 11.29296875 10.64453125 11.29296875 6.8125 11.1875 C5.54019531 11.16042969 4.26789063 11.13335937 2.95703125 11.10546875 C1.98121094 11.07066406 1.00539062 11.03585938 0 11 C0 7.37 0 3.74 0 0 Z " fill="#040403" transform="translate(180,171)"/>
<path d="M0 0 C0.81988403 -0.00014603 1.63976807 -0.00029205 2.48449707 -0.0004425 C5.1898871 0.00025321 7.89520796 0.00802967 10.60058594 0.01586914 C12.47816938 0.01773453 14.3557533 0.01915786 16.2333374 0.02015686 C21.17184801 0.0239725 26.11032915 0.03379468 31.04882812 0.04486084 C36.08951417 0.05509543 41.13020499 0.05965887 46.17089844 0.06469727 C56.05893221 0.07541778 65.94694412 0.09248279 75.83496094 0.11352539 C72.21198509 2.52884262 69.54160826 2.41306229 65.35351562 2.41650391 C64.21392647 2.4291629 64.21392647 2.4291629 63.05131531 2.44207764 C60.53648253 2.46789233 58.02176744 2.48000878 55.50683594 2.49243164 C53.75668411 2.50860933 52.00654128 2.52578961 50.25640869 2.54393005 C45.64284448 2.58966237 41.02926804 2.62443112 36.41558838 2.65612793 C29.04518178 2.70793707 21.67490938 2.77343732 14.30466461 2.84434319 C11.73508352 2.86707123 9.16551893 2.88341532 6.59588623 2.89906311 C5.00858385 2.91248208 3.42128311 2.92609793 1.83398438 2.93994141 C1.1251561 2.94255478 0.41632782 2.94516815 -0.3139801 2.94786072 C-4.69921164 2.99301187 -8.84893983 3.40979829 -13.16503906 4.11352539 C-12.83503906 3.12352539 -12.50503906 2.13352539 -12.16503906 1.11352539 C-8.41322005 -0.53109497 -4.02771674 -0.01877981 0 0 Z " fill="#FCF338" transform="translate(65.1650390625,85.886474609375)"/>
<path d="M0 0 C2.87511449 2.87511449 2.83614951 6.10482694 3 10 C2.5625 13 2.5625 13 2 15 C1.34 14.67 0.68 14.34 0 14 C-1.65 19.28 -3.3 24.56 -5 30 C-3.22625 29.95875 -1.4525 29.9175 0.375 29.875 C3.3984375 29.8046875 3.3984375 29.8046875 6 30 C6.66 30.66 7.32 31.32 8 32 C2.39 32 -3.22 32 -9 32 C-7.90897463 24.5810275 -6.08985822 17.54443004 -3.9375 10.375 C-3.6679248 9.47362305 -3.39834961 8.57224609 -3.12060547 7.64355469 C-1.1331925 1.1331925 -1.1331925 1.1331925 0 0 Z " fill="#EBE134" transform="translate(170,94)"/>
<path d="M0 0 C6.6 0 13.2 0 20 0 C22.9109509 9.73349208 24.62212295 17.75225251 24 28 C21.67459106 25.67459106 21.44490615 24.44058387 20.7109375 21.28125 C20.49179687 20.34925781 20.27265625 19.41726562 20.046875 18.45703125 C19.71429688 16.99330078 19.71429688 16.99330078 19.375 15.5 C19.03082031 14.03626953 19.03082031 14.03626953 18.6796875 12.54296875 C17 5.31431362 17 5.31431362 17 3 C12.38 3 7.76 3 3 3 C3 4.32 3 5.64 3 7 C2.01 7 1.02 7 0 7 C0 4.69 0 2.38 0 0 Z " fill="#EAE036" transform="translate(14,153)"/>
<path d="M0 0 C8.25 0 16.5 0 25 0 C25.33 2.97 25.66 5.94 26 9 C30.95 9 35.9 9 41 9 C41 7.68 41 6.36 41 5 C41.99 5 42.98 5 44 5 C44.495 8.465 44.495 8.465 45 12 C38.07 12 31.14 12 24 12 C22 7 22 7 22 4 C15.73 4 9.46 4 3 4 C3 3.67 3 3.34 3 3 C12.405 2.505 12.405 2.505 22 2 C14.74 2 7.48 2 0 2 C0 1.34 0 0.68 0 0 Z " fill="#E5DB3D" transform="translate(111,202)"/>
<path d="M0 0 C0.33 0 0.66 0 1 0 C1 2.64 1 5.28 1 8 C1.66 8 2.32 8 3 8 C3 5.69 3 3.38 3 1 C3.33 1 3.66 1 4 1 C4.03996094 1.59425781 4.07992187 2.18851563 4.12109375 2.80078125 C5.17732737 11.18545056 9.49942358 15.8621019 15 22 C16.8046875 24.1796875 16.8046875 24.1796875 18 26 C17.6875 28.25 17.6875 28.25 17 30 C16.01 29.67 15.02 29.34 14 29 C12.66548737 28.88764839 11.32645611 28.82424351 9.98754883 28.79467773 C9.18694534 28.77473251 8.38634186 28.75478729 7.56147766 28.73423767 C6.70201035 28.71752518 5.84254303 28.70081268 4.95703125 28.68359375 C4.0734343 28.66281265 3.18983734 28.64203156 2.27946472 28.62062073 C-0.54277785 28.55524246 -3.36511335 28.49629472 -6.1875 28.4375 C-8.10092106 28.39430363 -10.01433273 28.35068898 -11.92773438 28.30664062 C-16.61839437 28.19957305 -21.30914783 28.09827248 -26 28 C-26 27.67 -26 27.34 -26 27 C-13.13 27 -0.26 27 13 27 C9.09758625 21.8231337 9.09758625 21.8231337 5.19165039 16.64892578 C4.70688232 16.0042334 4.22211426 15.35954102 3.72265625 14.6953125 C3.22515869 14.03547363 2.72766113 13.37563477 2.21508789 12.69580078 C0.10519647 9.75119443 -0.11361822 7.95327532 -0.0625 4.375 C-0.05347656 3.55773437 -0.04445312 2.74046875 -0.03515625 1.8984375 C-0.02355469 1.27195313 -0.01195312 0.64546875 0 0 Z " fill="#B2AB3A" transform="translate(231,166)"/>
<path d="M0 0 C-1.65192612 4.20490286 -3.01228669 4.80982935 -7 8 C4.88 8.33 16.76 8.66 29 9 C29 15.93 29 22.86 29 30 C28.67 30 28.34 30 28 30 C28 23.4 28 16.8 28 10 C16.78 10.33 5.56 10.66 -6 11 C4.23 11.33 14.46 11.66 25 12 C25 12.33 25 12.66 25 13 C20.39198858 13.14873164 15.78538408 13.257388 11.17553711 13.32958984 C9.60888321 13.35969601 8.04239697 13.4005923 6.47631836 13.45263672 C4.21946857 13.52573887 1.96485204 13.55951301 -0.29296875 13.5859375 C-0.98899704 13.61690521 -1.68502533 13.64787292 -2.40214539 13.67977905 C-5.21560846 13.68171001 -7.37274962 13.51511966 -9.58950806 11.69464111 C-13 7.75970539 -13 7.75970539 -13 5 C-11.21046815 4.16209211 -9.41830305 3.32980604 -7.625 2.5 C-6.62726563 2.0359375 -5.62953125 1.571875 -4.6015625 1.09375 C-2 0 -2 0 0 0 Z " fill="#B1AA33" transform="translate(258,117)"/>
<path d="M0 0 C0.9583374 0.00523682 1.9166748 0.01047363 2.90405273 0.01586914 C4.45576172 0.02070313 4.45576172 0.02070313 6.03881836 0.02563477 C7.12743164 0.03401367 8.21604492 0.04239258 9.33764648 0.05102539 C10.97636719 0.05779297 10.97636719 0.05779297 12.64819336 0.06469727 C15.35723144 0.07652713 18.06616248 0.09300996 20.77514648 0.11352539 C18.77514648 2.11352539 18.77514648 2.11352539 16.80395508 2.34057617 C16.01843262 2.33010254 15.23291016 2.31962891 14.42358398 2.30883789 C13.57280273 2.30239258 12.72202148 2.29594727 11.84545898 2.28930664 C10.5112793 2.26416992 10.5112793 2.26416992 9.15014648 2.23852539 C8.25295898 2.22950195 7.35577148 2.22047852 6.43139648 2.21118164 C4.21253326 2.18757671 1.99380678 2.15170501 -0.22485352 2.11352539 C-0.55485352 5.08352539 -0.88485352 8.05352539 -1.22485352 11.11352539 C-8.15485352 11.11352539 -15.08485352 11.11352539 -22.22485352 11.11352539 C-22.22485352 5.48852539 -22.22485352 5.48852539 -19.22485352 2.11352539 C-18.22485352 3.11352539 -18.22485352 3.11352539 -18.22485352 8.11352539 C-13.60485352 8.11352539 -8.98485352 8.11352539 -4.22485352 8.11352539 C-4.08047852 6.97915039 -3.93610352 5.84477539 -3.78735352 4.67602539 C-3.07379851 0.15684366 -3.07379851 0.15684366 0 0 Z " fill="#EEE436" transform="translate(114.224853515625,202.886474609375)"/>
<path d="M0 0 C7.92 0 15.84 0 24 0 C26 6 26 6 26 9 C26.66 9.33 27.32 9.66 28 10 C26.35 10.66 24.7 11.32 23 12 C22.67 9.36 22.34 6.72 22 4 C15.73 4 9.46 4 3 4 C2.67 5.98 2.34 7.96 2 10 C1.01 9.34 0.02 8.68 -1 8 C-0.67 5.36 -0.34 2.72 0 0 Z " fill="#D7D02F" transform="translate(158,135)"/>
<path d="M0 0 C1.15291299 3.45873898 0.79741371 4.62303814 -0.109375 8.0859375 C-0.36831543 9.09398437 -0.62725586 10.10203125 -0.89404297 11.140625 C-1.17650879 12.20796875 -1.45897461 13.2753125 -1.75 14.375 C-2.31075362 16.54925812 -2.87065591 18.72373599 -3.4296875 20.8984375 C-3.70135742 21.94741211 -3.97302734 22.99638672 -4.25292969 24.07714844 C-5.60360815 29.36156756 -6.81462617 34.67621579 -8 40 C-8.66 39.01 -9.32 38.02 -10 37 C-10.66 37.99 -11.32 38.98 -12 40 C-11.27933546 34.13859507 -10.0182851 28.48560462 -8.625 22.75 C-8.28782959 21.3592627 -8.28782959 21.3592627 -7.94384766 19.94042969 C-7.49911099 18.11473606 -7.05240223 16.28952146 -6.60351562 14.46484375 C-6.09438808 12.38549434 -5.60017591 10.30250125 -5.109375 8.21875 C-4.86703125 7.2390625 -4.6246875 6.259375 -4.375 5.25 C-4.17648438 4.43015625 -3.97796875 3.6103125 -3.7734375 2.765625 C-3.51820312 2.18296875 -3.26296875 1.6003125 -3 1 C-2.01 0.67 -1.02 0.34 0 0 Z " fill="#CFC737" transform="translate(90,169)"/>
<path d="M0 0 C0.33 0 0.66 0 1 0 C1.47903968 7.02591532 0.16548286 14.66903428 -3 21 C-0.72886197 20.85899143 1.54190725 20.71203245 3.8125 20.5625 C5.07707031 20.48128906 6.34164062 20.40007812 7.64453125 20.31640625 C10.99181893 20.12815453 10.99181893 20.12815453 14 19 C14 20.65 14 22.3 14 24 C7.07 24 0.14 24 -7 24 C-5.80852171 18.04260854 -4.7267714 12.64547987 -2.9375 6.9375 C-2.59589844 5.83277344 -2.25429687 4.72804688 -1.90234375 3.58984375 C-1 1 -1 1 0 0 Z " fill="#EEE435" transform="translate(145,123)"/>
<path d="M0 0 C5.89073285 1.2622999 8.66496054 4.238528 12 9 C14.5289421 13.32672747 14.62422167 17.09205712 14 22 C13.10587464 25.31740828 12.04394283 28.218999 10 31 C6.75 32.0625 6.75 32.0625 4 32 C4.825 31.113125 5.65 30.22625 6.5 29.3125 C9.70121209 24.80878901 9.76600294 20.50644291 9.5546875 15.10546875 C8.72172873 10.44207283 6.77037458 7.79025379 3 5 C0.31520124 3.53574467 0.31520124 3.53574467 -2 3 C-1.34 2.67 -0.68 2.34 0 2 C0 1.34 0 0.68 0 0 Z " fill="#D9D038" transform="translate(249,87)"/>
<path d="M0 0 C3.98416091 0.54365542 5.78363228 2.43465185 8.546875 5.25390625 C9.39121094 6.10791016 10.23554688 6.96191406 11.10546875 7.84179688 C11.97816406 8.73962891 12.85085937 9.63746094 13.75 10.5625 C14.63816406 11.46419922 15.52632812 12.36589844 16.44140625 13.29492188 C18.63448315 15.52337098 20.82026044 17.75851593 23 20 C22.67 20.99 22.34 21.98 22 23 C18.84795019 21.60652624 16.73828227 19.97514921 14.328125 17.5234375 C13.66425781 16.853125 13.00039062 16.1828125 12.31640625 15.4921875 C11.63449219 14.79351562 10.95257813 14.09484375 10.25 13.375 C9.55261719 12.66859375 8.85523438 11.9621875 8.13671875 11.234375 C6.41992535 9.49406388 4.70935181 7.74762088 3 6 C2.67 11.94 2.34 17.88 2 24 C1.67 24 1.34 24 1 24 C0.97097571 20.72918529 0.95319316 17.4584037 0.9375 14.1875 C0.92912109 13.25873047 0.92074219 12.32996094 0.91210938 11.37304688 C0.90888672 10.48037109 0.90566406 9.58769531 0.90234375 8.66796875 C0.89710693 7.84578857 0.89187012 7.0236084 0.88647461 6.17651367 C1 4 1 4 2 1 C1.34 0.67 0.68 0.34 0 0 Z " fill="#D5CD3A" transform="translate(224,123)"/>
<path d="M0 0 C0.87840996 3.09720845 0.99435406 4.90645403 0 8 C0.66 8 1.32 8 2 8 C0.56327384 17.81132732 -1.65118989 27.37671974 -4 37 C-5.90318884 34.14521674 -6.4619099 32.58058692 -7.125 29.3125 C-7.29257812 28.50425781 -7.46015625 27.69601563 -7.6328125 26.86328125 C-7.75398438 26.24839844 -7.87515625 25.63351563 -8 25 C-7.67 25 -7.34 25 -7 25 C-6.87625 24.21625 -6.7525 23.4325 -6.625 22.625 C-6 20 -6 20 -4 18 C-3.35794362 16.07602728 -3.35794362 16.07602728 -2.9296875 13.8671875 C-2.75566406 13.06152344 -2.58164062 12.25585938 -2.40234375 11.42578125 C-2.22832031 10.58402344 -2.05429687 9.74226562 -1.875 8.875 C-1.69324219 8.02550781 -1.51148438 7.17601562 -1.32421875 6.30078125 C-0.87614984 4.20193215 -0.43720663 2.10113866 0 0 Z " fill="#D2C937" transform="translate(44,154)"/>
<path d="M0 0 C0.66 0 1.32 0 2 0 C2 6.6 2 13.2 2 20 C1.01 19.67 0.02 19.34 -1 19 C-3.3555448 18.84820986 -5.71475123 18.75100711 -8.07421875 18.68359375 C-8.7580513 18.66281265 -9.44188385 18.64203156 -10.1464386 18.62062073 C-12.3266921 18.55533846 -14.50706405 18.49633983 -16.6875 18.4375 C-18.16732986 18.39429447 -19.64714783 18.35067953 -21.12695312 18.30664062 C-24.75117622 18.19967917 -28.37553189 18.09835177 -32 18 C-32.33 19.32 -32.66 20.64 -33 22 C-33.5625 20.0625 -33.5625 20.0625 -34 18 C-33 17 -33 17 -30.04077148 16.88647461 C-28.74727783 16.89171143 -27.45378418 16.89694824 -26.12109375 16.90234375 C-25.09110008 16.90446617 -25.09110008 16.90446617 -24.04029846 16.90663147 C-21.83932199 16.91224521 -19.63844591 16.92479993 -17.4375 16.9375 C-15.94856917 16.94251324 -14.45963676 16.94707645 -12.97070312 16.95117188 C-9.31373195 16.96136979 -5.65697883 16.98094221 -2 17 C-2 12.38 -2 7.76 -2 3 C-1.34 3 -0.68 3 0 3 C0 2.01 0 1.02 0 0 Z " fill="#CBC43D" transform="translate(285,153)"/>
<path d="M0 0 C3.25049988 -0.08096264 6.49898234 -0.14048115 9.75 -0.1875 C11.13058594 -0.22520508 11.13058594 -0.22520508 12.5390625 -0.26367188 C13.42851562 -0.27333984 14.31796875 -0.28300781 15.234375 -0.29296875 C16.05131836 -0.3086792 16.86826172 -0.32438965 17.70996094 -0.34057617 C20.55199074 0.08209244 21.91503381 1.05654735 24 3 C24.52799676 5.76142303 24.18598981 8.16365545 24 11 C23.71125 10.38125 23.4225 9.7625 23.125 9.125 C22.06279958 6.86674235 22.06279958 6.86674235 20 5 C17.26565038 4.6936141 14.61720179 4.4886664 11.875 4.375 C11.12089844 4.33632812 10.36679688 4.29765625 9.58984375 4.2578125 C7.72696816 4.16348969 5.86351745 4.08065338 4 4 C4 7.63 4 11.26 4 15 C3.67 15 3.34 15 3 15 C3 11.04 3 7.08 3 3 C8.28 3 13.56 3 19 3 C19 2.34 19 1.68 19 1 C13.06 1 7.12 1 1 1 C1 6.61 1 12.22 1 18 C6.28 18 11.56 18 17 18 C17 18.33 17 18.66 17 19 C11.39 19 5.78 19 0 19 C0 12.73 0 6.46 0 0 Z " fill="#9A9539" transform="translate(222,100)"/>
<path d="M0 0 C0.66 0.33 1.32 0.66 2 1 C1.45156876 4.83901868 -0.2765265 6.36163505 -3 9 C-3.93249614 11.79748841 -4.13476152 13.54320881 -4.125 16.4375 C-4.12757812 17.19933594 -4.13015625 17.96117188 -4.1328125 18.74609375 C-4.00276015 20.95315859 -3.60856199 22.87969276 -3 25 C-3.66 25 -4.32 25 -5 25 C-5.33 25.66 -5.66 26.32 -6 27 C-8.50046269 21.99907462 -9.97154965 17.66737294 -9 12 C-7.19222062 6.66413507 -4.75326237 3.16884158 0 0 Z " fill="#CEC635" transform="translate(51,87)"/>
<path d="M0 0 C2.13761961 3.20642941 3.02317424 5.9440858 4.125 9.625 C4.47820312 10.79289063 4.83140625 11.96078125 5.1953125 13.1640625 C6 16 6 16 6 17 C2.7 17 -0.6 17 -4 17 C-3.51053237 10.73481438 -2.42378711 5.79601264 0 0 Z " fill="#0D0D08" transform="translate(123,173)"/>
<path d="M0 0 C0.33 0 0.66 0 1 0 C1.98197493 3.56173198 2.96008343 7.12451465 3.9375 10.6875 C4.21529297 11.69490234 4.49308594 12.70230469 4.77929688 13.74023438 C5.18051758 15.20493164 5.18051758 15.20493164 5.58984375 16.69921875 C5.83597412 17.59471436 6.08210449 18.49020996 6.33569336 19.4128418 C6.97963129 21.92067357 7.49221915 24.46109574 8 27 C3.05 26.67 -1.9 26.34 -7 26 C-6.505 24.515 -6.505 24.515 -6 23 C-6 23.66 -6 24.32 -6 25 C-3.03 24.67 -0.06 24.34 3 24 C2.58427734 22.66195312 2.58427734 22.66195312 2.16015625 21.296875 C1.79792969 20.12640625 1.43570313 18.9559375 1.0625 17.75 C0.70285156 16.58984375 0.34320313 15.4296875 -0.02734375 14.234375 C-0.75066637 11.82910942 -1.42542411 9.44345956 -2 7 C-1.34 7 -0.68 7 0 7 C0 4.69 0 2.38 0 0 Z " fill="#C7BF37" transform="translate(125,165)"/>
<path d="M0 0 C0.33 0 0.66 0 1 0 C1 3.63 1 7.26 1 11 C9.415 10.505 9.415 10.505 18 10 C18.66 8.02 19.32 6.04 20 4 C21.625 2.125 21.625 2.125 23 1 C23.42888067 5.28880672 23.31254694 7.48076879 21.0625 11.21875 C19.36775238 13.13455166 18.41263805 13.9056361 15.90112305 14.47998047 C13.4703722 14.59066622 11.11592181 14.52450032 8.6875 14.375 C7.85154297 14.34792969 7.01558594 14.32085937 6.15429688 14.29296875 C4.10174753 14.22259563 2.05053409 14.11498322 0 14 C0 9.38 0 4.76 0 0 Z " fill="#EEE437" transform="translate(178,171)"/>
<path d="M0 0 C6.78376359 5.55035203 12.85522968 11.76442027 19 18 C18.01 18.99 17.02 19.98 16 21 C9.66666667 14.66666667 3.33333333 8.33333333 -3 2 C-2.01 1.34 -1.02 0.68 0 0 Z " fill="#DBD137" transform="translate(182,192)"/>
<path d="M0 0 C1.974667 2.96200051 2.71955354 5.09771632 3.625 8.5 C3.88539063 9.4590625 4.14578125 10.418125 4.4140625 11.40625 C5 14 5 14 5 17 C1.7 17 -1.6 17 -5 17 C-4.54810561 14.91526053 -4.08823175 12.83224964 -3.625 10.75 C-3.24214844 9.00976562 -3.24214844 9.00976562 -2.8515625 7.234375 C-2.14203595 4.53947599 -1.36903611 2.40474168 0 0 Z " fill="#070705" transform="translate(170,106)"/>
<path d="M0 0 C0.33 0 0.66 0 1 0 C1 3.3 1 6.6 1 10 C-6.26 10 -13.52 10 -21 10 C-21 7.69 -21 5.38 -21 3 C-20.34 3 -19.68 3 -19 3 C-18.67 3.99 -18.34 4.98 -18 6 C-12.72 6.33 -7.44 6.66 -2 7 C-1.67 5.02 -1.34 3.04 -1 1 C-0.67 0.67 -0.34 0.34 0 0 Z " fill="#E9E038" transform="translate(48,204)"/>
<path d="M0 0 C0.66 0 1.32 0 2 0 C3.72234334 3.44468669 2.52126725 7.29261966 2 11 C1.85304688 12.05316406 1.70609375 13.10632813 1.5546875 14.19140625 C0.25824468 22.74175532 0.25824468 22.74175532 -2 25 C-4.125 24.625 -4.125 24.625 -6 24 C-5.5180017 21.83100765 -4.95039455 19.88590746 -4.0625 17.84375 C-2.76038872 14.35868746 -2.05844413 10.83137306 -1.375 7.1875 C-1.2409375 6.49462891 -1.106875 5.80175781 -0.96875 5.08789062 C-0.64141712 3.39277391 -0.32009406 1.69649854 0 0 Z " fill="#CDC536" transform="translate(73,154)"/>
<path d="M0 0 C2.62832343 2.62832343 2.35861892 3.95934968 2.4375 7.625 C2.35888995 13.56363224 0.99594868 17.58023858 -3 22 C-6.21451269 23.60725635 -9.43612536 23.05748185 -13 23 C-10 21 -10 21 -7.5 19.75 C-4.23916882 17.46741817 -3.32110594 15.75472214 -2 12 C-1.77303078 8.98032259 -1.81874207 6.02096558 -2 3 C-1.34 3 -0.68 3 0 3 C0 2.01 0 1.02 0 0 Z " fill="#D8CF37" transform="translate(78,121)"/>
<path d="M0 0 C11.55 0 23.1 0 35 0 C35.495 3.465 35.495 3.465 36 7 C35.34 7 34.68 7 34 7 C33.505 4.525 33.505 4.525 33 2 C22.11 2 11.22 2 0 2 C0 1.34 0 0.68 0 0 Z " fill="#F8EE32" transform="translate(106,153)"/>
<path d="M0 0 C15.84 0.495 15.84 0.495 32 1 C32 1.33 32 1.66 32 2 C22.1 2 12.2 2 2 2 C1.67 4.31 1.34 6.62 1 9 C0.0625 12.375 0.0625 12.375 -1 15 C-1.99 15.495 -1.99 15.495 -3 16 C-3.0828413 14.64692538 -3.14000368 13.29227589 -3.1875 11.9375 C-3.22230469 11.18339844 -3.25710937 10.42929688 -3.29296875 9.65234375 C-3 7 -3 7 0 0 Z " fill="#D5CC30" transform="translate(153,87)"/>
<path d="M0 0 C11.88 0 23.76 0 36 0 C36 1.32 36 2.64 36 4 C35.01 3.67 34.02 3.34 33 3 C30.8253636 2.8605818 28.64713339 2.774667 26.46875 2.71875 C25.18355469 2.68136719 23.89835937 2.64398438 22.57421875 2.60546875 C21.21615944 2.56979064 19.85808618 2.5346401 18.5 2.5 C15.84353615 2.43224276 13.18748065 2.35851248 10.53125 2.28125 C9.35111328 2.25095703 8.17097656 2.22066406 6.95507812 2.18945312 C4 2 4 2 1 1 C0.67 1.99 0.34 2.98 0 4 C0 2.68 0 1.36 0 0 Z " fill="#F8EF38" transform="translate(152,86)"/>
<path d="M0 0 C0.33 0 0.66 0 1 0 C1.8693381 3.41299009 2.71779224 6.83083808 3.5625 10.25 C3.80935547 11.21808594 4.05621094 12.18617188 4.31054688 13.18359375 C4.53935547 14.11816406 4.76816406 15.05273438 5.00390625 16.015625 C5.21861572 16.87446289 5.4333252 17.73330078 5.65454102 18.61816406 C6.0133965 21.09236484 5.78317203 22.64810343 5 25 C5 24.01 5 23.02 5 22 C4.01 22.33 3.02 22.66 2 23 C1.3304744 20.37569876 0.66426282 17.75063343 0 15.125 C-0.19078125 14.37863281 -0.3815625 13.63226563 -0.578125 12.86328125 C-2 7.2265625 -2 7.2265625 -2 5 C-1.34 5 -0.68 5 0 5 C0 3.35 0 1.7 0 0 Z " fill="#D2C936" transform="translate(24,185)"/>
<path d="M0 0 C5.94 0 11.88 0 18 0 C17.67 1.65 17.34 3.3 17 5 C16.34 5 15.68 5 15 5 C15 4.34 15 3.68 15 3 C10.71 3 6.42 3 2 3 C1.67 4.98 1.34 6.96 1 9 C0.34 9 -0.32 9 -1 9 C-0.67 6.03 -0.34 3.06 0 0 Z " fill="#F9EF33" transform="translate(45,153)"/>
<path d="M0 0 C10.23 0 20.46 0 31 0 C31.33 0.66 31.66 1.32 32 2 C22.1 2 12.2 2 2 2 C2 3.65 2 5.3 2 7 C1.34 6.34 0.68 5.68 0 5 C0 3.35 0 1.7 0 0 Z " fill="#F6EB32" transform="translate(253,171)"/>
<path d="M0 0 C2.475 0.99 2.475 0.99 5 2 C4.40445313 2.26683594 3.80890625 2.53367188 3.1953125 2.80859375 C-1.12730413 5.15449779 -4.25657802 8.79077432 -5.828125 13.4609375 C-6.30889372 15.63813297 -6.70933928 17.78997629 -7 20 C-7.66 20 -8.32 20 -9 20 C-9.35480978 15.01295144 -9.58540154 11.17080309 -7.3125 6.625 C-5.05050848 4.05733395 -2.77090112 2.00120637 0 0 Z " fill="#F1E836" transform="translate(241,154)"/>
<path d="M0 0 C8.25 0 16.5 0 25 0 C26 7 26 7 24.5625 9.4375 C24.046875 9.953125 23.53125 10.46875 23 11 C22.67 8.69 22.34 6.38 22 4 C15.73 4 9.46 4 3 4 C3 3.67 3 3.34 3 3 C12.405 2.505 12.405 2.505 22 2 C14.74 2 7.48 2 0 2 C0 1.34 0 0.68 0 0 Z " fill="#9F993E" transform="translate(111,202)"/>
<path d="M0 0 C0.99 0 1.98 0 3 0 C3.33 0.99 3.66 1.98 4 3 C3.34 3 2.68 3 2 3 C2 9.6 2 16.2 2 23 C-3.61 22.67 -9.22 22.34 -15 22 C-15 21.67 -15 21.34 -15 21 C-10.05 21 -5.1 21 0 21 C0 14.07 0 7.14 0 0 Z " fill="#FAF030" transform="translate(223,124)"/>
<path d="M0 0 C0.66 0 1.32 0 2 0 C1.67 2.64 1.34 5.28 1 8 C2.15628906 7.96519531 2.15628906 7.96519531 3.3359375 7.9296875 C4.33882812 7.91164063 5.34171875 7.89359375 6.375 7.875 C7.37273437 7.85179688 8.37046875 7.82859375 9.3984375 7.8046875 C12 8 12 8 14 10 C8.39 10 2.78 10 -3 10 C-1.125 1.125 -1.125 1.125 0 0 Z " fill="#FEF430" transform="translate(164,116)"/>
<path d="M0 0 C0.33 0 0.66 0 1 0 C1.50546036 2.08201528 2.00416835 4.16567067 2.5 6.25 C2.7784375 7.41015625 3.056875 8.5703125 3.34375 9.765625 C4 13 4 13 4 17 C3.34 17 2.68 17 2 17 C1.67 18.32 1.34 19.64 1 21 C-0.96818336 15.17745757 -2.40214229 10.16618181 -2 4 C-1.34 4 -0.68 4 0 4 C0 2.68 0 1.36 0 0 Z " fill="#C5BD35" transform="translate(188,86)"/>
<path d="M0 0 C0.33 0.66 0.66 1.32 1 2 C1.66 2 2.32 2 3 2 C1.6717914 6.28383762 0.17477484 7.9783526 -3.625 10.3125 C-4.44226563 10.82425781 -5.25953125 11.33601562 -6.1015625 11.86328125 C-6.72804687 12.23839844 -7.35453125 12.61351562 -8 13 C-9.32 12.01 -10.64 11.02 -12 10 C-11.38511719 9.69707031 -10.77023438 9.39414063 -10.13671875 9.08203125 C-3.82431806 5.84866923 -3.82431806 5.84866923 0 0 Z " fill="#D7CE37" transform="translate(211,179)"/>
<path d="M0 0 C2.8992226 0.46761655 3.86675182 0.86675182 6 3 C6.125 6.125 6.125 6.125 6 9 C5.33613281 8.19175781 4.67226562 7.38351563 3.98828125 6.55078125 C0.3918969 3.48092638 -2.28179415 3.22652043 -6.8125 3.1875 C-7.85180664 3.14979492 -7.85180664 3.14979492 -8.91210938 3.11132812 C-10.60747122 3.05286737 -12.30379287 3.02346953 -14 3 C-14 6.63 -14 10.26 -14 14 C-14.33 14 -14.66 14 -15 14 C-15 10.04 -15 6.08 -15 2 C-14.00097656 1.93941406 -13.00195312 1.87882813 -11.97265625 1.81640625 C-10.68230469 1.73261719 -9.39195312 1.64882812 -8.0625 1.5625 C-6.77472656 1.48128906 -5.48695313 1.40007812 -4.16015625 1.31640625 C-1.13976043 1.35080812 -1.13976043 1.35080812 0 0 Z " fill="#B8B137" transform="translate(194,168)"/>
<path d="M0 0 C0.33 0 0.66 0 1 0 C1.53181175 2.24743045 2.05007126 4.49807102 2.5625 6.75 C2.85253906 8.00296875 3.14257812 9.2559375 3.44140625 10.546875 C4.21568707 15.33333827 3.24294363 17.8131719 1 22 C0.46678738 19.77376199 -0.05110119 17.54384996 -0.5625 15.3125 C-0.85253906 14.07113281 -1.14257812 12.82976562 -1.44140625 11.55078125 C-2.14914095 7.05196416 -1.41536123 4.24608368 0 0 Z " fill="#D2CA37" transform="translate(63,154)"/>
<path d="M0 0 C0.33 0 0.66 0 1 0 C1.1953125 2.05078125 1.390625 4.1015625 1.5859375 6.15234375 C1.72257812 6.76207031 1.85921875 7.37179688 2 8 C2.66 8.33 3.32 8.66 4 9 C2.35 9.66 0.7 10.32 -1 11 C-1.33 8.36 -1.66 5.72 -2 3 C-8.27 3 -14.54 3 -21 3 C-21 2.67 -21 2.34 -21 2 C-20.39937744 1.97494385 -19.79875488 1.9498877 -19.17993164 1.92407227 C-16.47388563 1.8084472 -13.76821717 1.68557064 -11.0625 1.5625 C-10.11697266 1.52318359 -9.17144531 1.48386719 -8.19726562 1.44335938 C-7.29814453 1.40146484 -6.39902344 1.35957031 -5.47265625 1.31640625 C-4.64000244 1.27974854 -3.80734863 1.24309082 -2.94946289 1.20532227 C-0.99661142 1.20632897 -0.99661142 1.20632897 0 0 Z " fill="#BCB538" transform="translate(182,136)"/>
<path d="M0 0 C2 2 2 2 2.1953125 4.1640625 C2.17210938 4.97617188 2.14890625 5.78828125 2.125 6.625 C2.10695313 7.44226563 2.08890625 8.25953125 2.0703125 9.1015625 C2.03550781 10.04128906 2.03550781 10.04128906 2 11 C1.34 11 0.68 11 0 11 C-0.12375 11.969375 -0.2475 12.93875 -0.375 13.9375 C-0.58125 14.948125 -0.7875 15.95875 -1 17 C-1.66 17.33 -2.32 17.66 -3 18 C-3.36517527 11.42684522 -2.13619737 6.20514474 0 0 Z " fill="#E5DC36" transform="translate(123,161)"/>
<path d="M0 0 C1.5 1.25 1.5 1.25 3 3 C3 4.32 3 5.64 3 7 C-3.27 7 -9.54 7 -16 7 C-15.67 6.34 -15.34 5.68 -15 5 C-10.05 5 -5.1 5 0 5 C0 3.35 0 1.7 0 0 Z " fill="#F5EB30" transform="translate(199,140)"/>
<path d="M0 0 C2 3 2 3 2 7 C-4.6 7 -11.2 7 -18 7 C-17.67 6.34 -17.34 5.68 -17 5 C-12.05 5 -7.1 5 -2 5 C-5.63 4.67 -9.26 4.34 -13 4 C-13 3.67 -13 3.34 -13 3 C-9.7 3 -6.4 3 -3 3 C-2.67 2.34 -2.34 1.68 -2 1 C-2 1.66 -2 2.32 -2 3 C-1.34 3 -0.68 3 0 3 C0 2.01 0 1.02 0 0 Z " fill="#9E993E" transform="translate(178,120)"/>
<path d="M0 0 C0.33 0 0.66 0 1 0 C1.6037701 11.31509887 1.6037701 11.31509887 -2 16 C-5.1875 16.875 -5.1875 16.875 -8 17 C-7.236875 16.05125 -6.47375 15.1025 -5.6875 14.125 C-2.54922172 9.78312067 -1.2743991 5.14940125 0 0 Z " fill="#DCD339" transform="translate(261,102)"/>
<path d="M0 0 C0.66 0 1.32 0 2 0 C1.88529863 1.75070517 1.75780972 3.50057536 1.625 5.25 C1.55539063 6.22453125 1.48578125 7.1990625 1.4140625 8.203125 C1.01534751 10.89633189 0.36492937 12.66963279 -1 15 C-1.66 15 -2.32 15 -3 15 C-2.5547115 9.72684667 -1.91626837 4.98229776 0 0 Z " fill="#E6DD38" transform="translate(102,171)"/>
<path d="M0 0 C0.66 0 1.32 0 2 0 C1.54857225 1.77260631 1.08859477 3.5430368 0.625 5.3125 C0.36976563 6.29863281 0.11453125 7.28476563 -0.1484375 8.30078125 C-1 11 -1 11 -3 14 C-3 13.34 -3 12.68 -3 12 C-3.99 12.33 -4.98 12.66 -6 13 C-5.71758359 11.53984709 -5.42373386 10.08190207 -5.125 8.625 C-4.96257812 7.81289062 -4.80015625 7.00078125 -4.6328125 6.1640625 C-4 4 -4 4 -2 2 C-1.34 2.33 -0.68 2.66 0 3 C0 2.01 0 1.02 0 0 Z " fill="#C8C037" transform="translate(169,104)"/>
<path d="M0 0 C2.73902249 2.36551942 3.93170092 4.54857221 5 8 C5.125 10.8125 5.125 10.8125 5 13 C4.34 13 3.68 13 3 13 C2.67 13.66 2.34 14.32 2 15 C0.53329887 9.77487721 -0.22577402 5.4185766 0 0 Z " fill="#DBD336" transform="translate(149,194)"/>
<path d="M0 0 C1.5625 1.0625 1.5625 1.0625 3 3 C2.75 6.375 2.75 6.375 2 10 C1.814375 10.969375 1.62875 11.93875 1.4375 12.9375 C1.293125 13.618125 1.14875 14.29875 1 15 C0.34 14.01 -0.32 13.02 -1 12 C-1.66 12.99 -2.32 13.98 -3 15 C-2.35812082 9.86496656 -1.31727753 5.0056546 0 0 Z " fill="#C6BE38" transform="translate(149,99)"/>
<path d="M0 0 C0.66 0.33 1.32 0.66 2 1 C1.52695318 5.25742137 -0.8863822 7.25705098 -4 10 C-4.99 10.33 -5.98 10.66 -7 11 C-6.58485103 6.1565954 -4.53791301 4.18412171 -1 1 C-0.67 0.67 -0.34 0.34 0 0 Z " fill="#DCD337" transform="translate(51,87)"/>
<path d="M0 0 C1.72357119 2.58535679 2.44735018 4.03811614 3.1875 6.9375 C3.36667969 7.60652344 3.54585937 8.27554688 3.73046875 8.96484375 C4.03268678 11.24680888 3.68756692 12.82026659 3 15 C2.67 14.01 2.34 13.02 2 12 C1.01 13.485 1.01 13.485 0 15 C-0.39143394 13.25360243 -0.76254287 11.50264082 -1.125 9.75 C-1.33382812 8.77546875 -1.54265625 7.8009375 -1.7578125 6.796875 C-2.0202996 3.76557234 -1.61988849 2.51982654 0 0 Z " fill="#C4BC38" transform="translate(196,121)"/>
<path d="M0 0 C2.27678571 8.03571429 2.27678571 8.03571429 1 12 C0.67 11.34 0.34 10.68 0 10 C-0.99 11.485 -0.99 11.485 -2 13 C-2.66 9.37 -3.32 5.74 -4 2 C-1 0 -1 0 0 0 Z " fill="#BAB236" transform="translate(150,185)"/>
<path d="M0 0 C0.33 0 0.66 0 1 0 C1.04241723 2.33294775 1.04092937 4.66702567 1 7 C0 8 0 8 -1.76586914 8.11352539 C-2.51473389 8.10828857 -3.26359863 8.10305176 -4.03515625 8.09765625 C-4.84404297 8.09443359 -5.65292969 8.09121094 -6.48632812 8.08789062 C-7.33646484 8.07951172 -8.18660156 8.07113281 -9.0625 8.0625 C-9.91650391 8.05798828 -10.77050781 8.05347656 -11.65039062 8.04882812 C-13.76695663 8.03700373 -15.88348685 8.01906769 -18 8 C-18 7.67 -18 7.34 -18 7 C-12.72 7 -7.44 7 -2 7 C-1.67 5.02 -1.34 3.04 -1 1 C-0.67 0.67 -0.34 0.34 0 0 Z " fill="#F9EF30" transform="translate(80,205)"/>
<path d="M0 0 C0.33 0.99 0.66 1.98 1 3 C1.66 3 2.32 3 3 3 C3.33 2.34 3.66 1.68 4 1 C3.40049704 4.68266103 2.75241109 8.34543185 2 12 C1.34 11.01 0.68 10.02 0 9 C-0.66 9.99 -1.32 10.98 -2 12 C-1.44687265 7.97007218 -0.8441938 3.97977076 0 0 Z " fill="#B9B137" transform="translate(80,197)"/>
<path d="M0 0 C0.99 0.33 1.98 0.66 3 1 C3.33 2.65 3.66 4.3 4 6 C-0.95 5.67 -5.9 5.34 -11 5 C-10.67 4.01 -10.34 3.02 -10 2 C-10 2.66 -10 3.32 -10 4 C-6.7 4 -3.4 4 0 4 C0 2.68 0 1.36 0 0 Z " fill="#BAB22C" transform="translate(129,186)"/>
<path d="M0 0 C0.33 0 0.66 0 1 0 C1 2.64 1 5.28 1 8 C1.66 8 2.32 8 3 8 C3 5.69 3 3.38 3 1 C3.33 1 3.66 1 4 1 C4.66 4.96 5.32 8.92 6 13 C4.68 13 3.36 13 2 13 C0.21590198 9.93753253 -0.22880021 7.77920727 -0.125 4.25 C-0.10695312 3.45078125 -0.08890625 2.6515625 -0.0703125 1.828125 C-0.04710937 1.22484375 -0.02390625 0.6215625 0 0 Z " fill="#B4AD34" transform="translate(231,166)"/>
<path d="M0 0 C3.42724441 5.14086661 3.1015597 10.00797796 3 16 C2.34 16 1.68 16 1 16 C0.34 13.36 -0.32 10.72 -1 8 C-0.34 8 0.32 8 1 8 C0.67 5.36 0.34 2.72 0 0 Z " fill="#DAD238" transform="translate(21,174)"/>
<path d="M0 0 C0.33 0 0.66 0 1 0 C1.19294408 4.82360189 0.75747614 8.49646738 -1 13 C-1.66 13 -2.32 13 -3 13 C-3.31563182 7.73946963 -2.66590937 4.55426184 0 0 Z " fill="#EFE635" transform="translate(145,123)"/>
<path d="M0 0 C2 2 2 2 2.23046875 4.09375 C2.21628906 4.8878125 2.20210937 5.681875 2.1875 6.5 C2.18105469 7.2940625 2.17460937 8.088125 2.16796875 8.90625 C2 11 2 11 1 13 C0.01 13 -0.98 13 -2 13 C-1.34 8.71 -0.68 4.42 0 0 Z " fill="#F1E736" transform="translate(214,168)"/>
<path d="M0 0 C0.33 0 0.66 0 1 0 C1.3125 3.1875 1.3125 3.1875 1 7 C-1.5 9.9375 -1.5 9.9375 -4 12 C-4.66 11.01 -5.32 10.02 -6 9 C-5.34 9 -4.68 9 -4 9 C-3.71125 8.071875 -3.4225 7.14375 -3.125 6.1875 C-2 3 -2 3 0 0 Z " fill="#DBD136" transform="translate(200,172)"/>
<path d="M0 0 C2.09715785 3.14573677 2.52004559 5.01456251 3.125 8.6875 C3.29257813 9.68136719 3.46015625 10.67523438 3.6328125 11.69921875 C3.75398437 12.45847656 3.87515625 13.21773437 4 14 C3.34 13.34 2.68 12.68 2 12 C1.34 12.99 0.68 13.98 0 15 C-0.33 12.36 -0.66 9.72 -1 7 C-0.34 7 0.32 7 1 7 C0.67 4.69 0.34 2.38 0 0 Z " fill="#BDB638" transform="translate(141,153)"/>
<path d="M0 0 C0.99 0 1.98 0 3 0 C4.20272819 2.40545638 4.10071472 3.94996953 4.0625 6.625 C4.05347656 7.44226563 4.04445313 8.25953125 4.03515625 9.1015625 C4.02355469 9.72804688 4.01195312 10.35453125 4 11 C3.67 11 3.34 11 3 11 C2.67 9.35 2.34 7.7 2 6 C1.67 7.65 1.34 9.3 1 11 C0.67 11 0.34 11 0 11 C0 7.37 0 3.74 0 0 Z " fill="#BAB33A" transform="translate(259,98)"/>
<path d="M0 0 C2.24606427 1.77444972 2.95081002 2.58352485 3.29296875 5.48046875 C3.25816406 6.37378906 3.22335938 7.26710937 3.1875 8.1875 C3.16042969 9.08855469 3.13335937 9.98960937 3.10546875 10.91796875 C3.07066406 11.60503906 3.03585938 12.29210937 3 13 C1 12 1 12 0.375 10.4375 C-0.16368951 6.93601819 -0.05903219 3.54193167 0 0 Z " fill="#F0E635" transform="translate(56,191)"/>
<path d="M0 0 C0.33 0 0.66 0 1 0 C1.36391205 7.39954511 1.36391205 7.39954511 -0.25 10.0625 C-2 11 -2 11 -4.1875 10.6875 C-4.785625 10.460625 -5.38375 10.23375 -6 10 C-5.525625 9.608125 -5.05125 9.21625 -4.5625 8.8125 C-2.64051301 6.58299509 -2.51273969 4.85669256 -2 2 C-1.34 1.34 -0.68 0.68 0 0 Z " fill="#DED539" transform="translate(246,105)"/>
<path d="M0 0 C0.66 0 1.32 0 2 0 C1.67 2.64 1.34 5.28 1 8 C-0.32 8.33 -1.64 8.66 -3 9 C-2.69181644 7.68647977 -2.37832335 6.37420428 -2.0625 5.0625 C-1.88847656 4.33160156 -1.71445313 3.60070312 -1.53515625 2.84765625 C-1 1 -1 1 0 0 Z " fill="#E6DC36" transform="translate(164,116)"/>
<path d="M0 0 C2 3 2 3 3 5 C6.27555608 5.47001033 6.27555608 5.47001033 10.0625 5.625 C11.99802734 5.73714844 11.99802734 5.73714844 13.97265625 5.8515625 C15.47119141 5.92503906 15.47119141 5.92503906 17 6 C17 6.33 17 6.66 17 7 C11.39 7 5.78 7 0 7 C0 4.69 0 2.38 0 0 Z " fill="#FDF32E" transform="translate(135,206)"/>
<path d="M0 0 C2.6875 0.875 2.6875 0.875 5 2 C4.1646875 2.37125 4.1646875 2.37125 3.3125 2.75 C0.60028873 4.21606015 -1.63587365 6.02989471 -4 8 C-3.6875 5.125 -3.6875 5.125 -3 2 C-2.01 1.34 -1.02 0.68 0 0 Z " fill="#D2CA38" transform="translate(241,154)"/>
<path d="M0 0 C0.33 0 0.66 0 1 0 C3.27678571 8.03571429 3.27678571 8.03571429 2 12 C1.67 11.01 1.34 10.02 1 9 C0.34 9.99 -0.32 10.98 -1 12 C-1.33 9.69 -1.66 7.38 -2 5 C-1.34 5 -0.68 5 0 5 C0 3.35 0 1.7 0 0 Z " fill="#B9B238" transform="translate(24,185)"/>
<path d="M0 0 C0.28571429 7.42857143 0.28571429 7.42857143 -2 11 C-3 10 -3 10 -3.09765625 7.93359375 C-3.08605469 7.10988281 -3.07445313 6.28617188 -3.0625 5.4375 C-3.05347656 4.61121094 -3.04445313 3.78492188 -3.03515625 2.93359375 C-3.02355469 2.29550781 -3.01195313 1.65742188 -3 1 C-1 0 -1 0 0 0 Z " fill="#D8D037" transform="translate(70,181)"/>
<path d="M0 0 C0.33 0 0.66 0 1 0 C2.28571429 8.42857143 2.28571429 8.42857143 1 13 C0.01 12.34 -0.98 11.68 -2 11 C-1.125 3.375 -1.125 3.375 0 0 Z " fill="#C9C138" transform="translate(119,173)"/>
<path d="M0 0 C0.33 1.32 0.66 2.64 1 4 C1.66 4 2.32 4 3 4 C2.67 5.98 2.34 7.96 2 10 C1.34 9.67 0.68 9.34 0 9 C-0.66 9.66 -1.32 10.32 -2 11 C-1.40049704 7.31733897 -0.75241109 3.65456815 0 0 Z " fill="#C6BF38" transform="translate(141,132)"/>
<path d="M0 0 C0.33 0 0.66 0 1 0 C1.66 3.96 2.32 7.92 3 12 C2.34 11.34 1.68 10.68 1 10 C0.34 10.99 -0.32 11.98 -1 13 C-1.33 10.69 -1.66 8.38 -2 6 C-1.67 6 -1.34 6 -1 6 C-0.67 4.02 -0.34 2.04 0 0 Z " fill="#B7B038" transform="translate(59,197)"/>
<path d="M0 0 C1.5 1.0625 1.5 1.0625 3 3 C3.1875 6.6875 3.1875 6.6875 3 10 C2.34 10 1.68 10 1 10 C-0.1577506 6.52674819 -0.06866652 3.63932552 0 0 Z " fill="#F3E935" transform="translate(142,164)"/>
<path d="M0 0 C2 1.8125 2 1.8125 4 4 C4 4.99 4 5.98 4 7 C3.34 7 2.68 7 2 7 C1.67 7.99 1.34 8.98 1 10 C0.67 6.7 0.34 3.4 0 0 Z " fill="#E1D837" transform="translate(127,179)"/>
<path d="M0 0 C2.4375 0.75 2.4375 0.75 5 2 C5.8125 4.125 5.8125 4.125 6 6 C5.01 6 4.02 6 3 6 C0 2.66666667 0 2.66666667 0 0 Z " fill="#EAE036" transform="translate(234,178)"/>
<path d="M0 0 C0.33 0 0.66 0 1 0 C1 3.3 1 6.6 1 10 C0.01 10 -0.98 10 -2 10 C-1.34 6.7 -0.68 3.4 0 0 Z " fill="#F8EE33" transform="translate(261,102)"/>
<path d="M0 0 C0.66 0 1.32 0 2 0 C2.1875 3.375 2.1875 3.375 2 7 C1.01 7.66 0.02 8.32 -1 9 C-0.67 6.03 -0.34 3.06 0 0 Z " fill="#EEE436" transform="translate(89,162)"/>
<path d="M0 0 C2.88575819 0.39803561 3.82189513 0.79009069 5.75 3.0625 C6.1625 3.701875 6.575 4.34125 7 5 C6.01 6.485 6.01 6.485 5 8 C2 3.25 2 3.25 2 1 C1.34 0.67 0.68 0.34 0 0 Z " fill="#CFC638" transform="translate(224,123)"/>
<path d="M0 0 C1.9375 0.75 1.9375 0.75 4 2 C4.75 4.125 4.75 4.125 5 6 C4.01 6.33 3.02 6.66 2 7 C0 4 0 4 0 0 Z " fill="#E6DD37" transform="translate(256,92)"/>
<path d="M0 0 C0.66 0.99 1.32 1.98 2 3 C2.66 2.34 3.32 1.68 4 1 C3.67 2.98 3.34 4.96 3 7 C1.35 6.67 -0.3 6.34 -2 6 C-1.49396008 3.83125748 -1.00016187 2.00032373 0 0 Z " fill="#B1AA37" transform="translate(69,172)"/>
<path d="M0 0 C2.375 0.25 2.375 0.25 5 1 C6.3125 3.0625 6.3125 3.0625 7 5 C6.01 5 5.02 5 4 5 C1.8125 2.5 1.8125 2.5 0 0 Z " fill="#F2E836" transform="translate(198,190)"/>
<path d="M0 0 C1.5 1.0625 1.5 1.0625 3 3 C3.1875 6.6875 3.1875 6.6875 3 10 C1.5 8.9375 1.5 8.9375 0 7 C-0.1875 3.3125 -0.1875 3.3125 0 0 Z " fill="#F2E835" transform="translate(146,180)"/>
<path d="M0 0 C0.66 0 1.32 0 2 0 C2 1.98 2 3.96 2 6 C1.01 6.33 0.02 6.66 -1 7 C-1.04254356 5.00045254 -1.04080783 2.99958364 -1 1 C-0.67 0.67 -0.34 0.34 0 0 Z " fill="#EDE435" transform="translate(102,171)"/>
<path d="M0 0 C1.125 3.75 1.125 3.75 0 6 C0.99 5.67 1.98 5.34 3 5 C2.67 6.98 2.34 8.96 2 11 C1.67 10.01 1.34 9.02 1 8 C0.34 8 -0.32 8 -1 8 C-0.67 5.36 -0.34 2.72 0 0 Z " fill="#ADA737" transform="translate(103,163)"/>
<path d="M0 0 C0.66 0 1.32 0 2 0 C1.74438677 2.3431213 1.40729228 4.67843403 1 7 C0.01 7.495 0.01 7.495 -1 8 C-1.04241723 5.66705225 -1.04092937 3.33297433 -1 1 C-0.67 0.67 -0.34 0.34 0 0 Z " fill="#F3E935" transform="translate(71,168)"/>
<path d="M0 0 C-0.66 1.32 -1.32 2.64 -2 4 C-2 3.34 -2 2.68 -2 2 C-6.29 2 -10.58 2 -15 2 C-15 1.67 -15 1.34 -15 1 C-12.8750734 0.83240016 -10.75005624 0.66594799 -8.625 0.5 C-7.44164062 0.4071875 -6.25828125 0.314375 -5.0390625 0.21875 C-3.36213157 0.09804546 -1.68126944 0 0 0 Z " fill="#CAC242" transform="translate(62,154)"/>
<path d="M0 0 C2.35953094 2.35953094 2.49141413 3.77895617 3 7 C1.68 6.34 0.36 5.68 -1 5 C-1.33 5.99 -1.66 6.98 -2 8 C-1.125 1.125 -1.125 1.125 0 0 Z " fill="#B4AD39" transform="translate(170,94)"/>
<path d="M0 0 C0.33 0 0.66 0 1 0 C1.125 5.75 1.125 5.75 0 8 C-0.66 8 -1.32 8 -2 8 C-1.125 1.125 -1.125 1.125 0 0 Z " fill="#F5EC34" transform="translate(83,192)"/>
<path d="M0 0 C2 3 2 3 1.75 4.9375 C0.97936717 7.05674028 0.0643413 9.01322958 -1 11 C-1.125 3.375 -1.125 3.375 0 0 Z " fill="#C7C038" transform="translate(34,156)"/>
<path d="M0 0 C0.66 0 1.32 0 2 0 C2.125 2.875 2.125 2.875 2 6 C1.34 6.66 0.68 7.32 0 8 C-0.38063221 5.6739143 -0.71269945 3.33944736 -1 1 C-0.67 0.67 -0.34 0.34 0 0 Z " fill="#E9E037" transform="translate(32,153)"/>
<path d="M0 0 C1.65 1.65 3.3 3.3 5 5 C3.02 5.99 3.02 5.99 1 7 C0 6 0 6 -0.0625 2.9375 C-0.041875 1.968125 -0.02125 0.99875 0 0 Z " fill="#D9D139" transform="translate(255,173)"/>
<path d="M0 0 C0.99 0 1.98 0 3 0 C3 2.31 3 4.62 3 7 C2.67 6.34 2.34 5.68 2 5 C1.34 5 0.68 5 0 5 C0 3.35 0 1.7 0 0 Z " fill="#DBD337" transform="translate(71,163)"/>
</svg>
